<svg width="642" height="131" viewBox="0 0 642 131" fill="none" xmlns="http://www.w3.org/2000/svg">
<path d="M54.028 10.7001H50.5748C50.4764 10.1338 50.2948 9.63218 50.0301 9.19516C49.7654 8.75197 49.4361 8.3765 49.0422 8.06874C48.6482 7.76097 48.1989 7.53015 47.6942 7.37626C47.1956 7.21623 46.657 7.13621 46.0784 7.13621C45.0505 7.13621 44.1395 7.39473 43.3454 7.91178C42.5514 8.42267 41.9297 9.17361 41.4804 10.1646C41.031 11.1495 40.8064 12.3528 40.8064 13.7747C40.8064 15.2212 41.031 16.4399 41.4804 17.431C41.9359 18.4158 42.5576 19.1606 43.3454 19.6653C44.1395 20.1639 45.0474 20.4132 46.0692 20.4132C46.6354 20.4132 47.1648 20.3393 47.6572 20.1916C48.1558 20.0377 48.6021 19.8131 48.996 19.5176C49.3961 19.2221 49.7316 18.859 50.0024 18.4281C50.2794 17.9972 50.4702 17.5048 50.5748 16.9508L54.028 16.9693C53.8987 17.868 53.6186 18.7113 53.1878 19.4991C52.7631 20.287 52.206 20.9826 51.5166 21.5858C50.8272 22.1828 50.0209 22.6506 49.0976 22.9892C48.1743 23.3216 47.1494 23.4878 46.023 23.4878C44.3611 23.4878 42.8776 23.1031 41.5727 22.3337C40.2678 21.5642 39.2398 20.4532 38.4889 19.0006C37.738 17.5479 37.3625 15.806 37.3625 13.7747C37.3625 11.7373 37.741 9.99535 38.4981 8.54885C39.2552 7.0962 40.2863 5.98517 41.5912 5.21575C42.8961 4.44634 44.3734 4.06163 46.023 4.06163C47.0756 4.06163 48.0542 4.20936 48.9591 4.50482C49.8639 4.80027 50.6702 5.23422 51.3781 5.80666C52.086 6.37295 52.6676 7.0685 53.1231 7.89331C53.5848 8.71197 53.8864 9.64757 54.028 10.7001ZM60.3595 4.32016V23.2292H57.0171V4.32016H60.3595ZM63.7964 23.2292V9.04743H67.1388V23.2292H63.7964ZM65.4768 7.03465C64.9475 7.03465 64.492 6.85922 64.1104 6.50837C63.7287 6.15136 63.5379 5.72357 63.5379 5.22499C63.5379 4.72025 63.7287 4.29246 64.1104 3.9416C64.492 3.5846 64.9475 3.40609 65.4768 3.40609C66.0123 3.40609 66.4678 3.5846 66.8433 3.9416C67.2249 4.29246 67.4157 4.72025 67.4157 5.22499C67.4157 5.72357 67.2249 6.15136 66.8433 6.50837C66.4678 6.85922 66.0123 7.03465 65.4768 7.03465ZM80.0395 28.5474V20.9949H79.901C79.7287 21.3396 79.4794 21.7058 79.1531 22.0936C78.8269 22.4752 78.396 22.8015 77.8605 23.0723C77.325 23.3431 76.651 23.4785 75.8385 23.4785C74.7244 23.4785 73.7272 23.1923 72.847 22.6199C71.9668 22.0474 71.2713 21.2165 70.7604 20.127C70.2495 19.0375 69.9941 17.7141 69.9941 16.1568C69.9941 14.581 70.2526 13.2515 70.7696 12.1682C71.2928 11.0787 71.9976 10.2569 72.884 9.70297C73.7703 9.14284 74.7583 8.86277 75.8477 8.86277C76.6787 8.86277 77.3619 9.00434 77.8975 9.28749C78.433 9.56447 78.8577 9.89994 79.1716 10.2939C79.4855 10.6817 79.7287 11.0479 79.901 11.3926H80.1041V9.04743H83.3911V28.5474H80.0395ZM76.771 20.7364C77.4789 20.7364 78.0821 20.5455 78.5807 20.1639C79.0793 19.7761 79.4578 19.2375 79.7164 18.5481C79.9749 17.8587 80.1041 17.0555 80.1041 16.1383C80.1041 15.2212 79.9749 14.4241 79.7164 13.747C79.464 13.0699 79.0885 12.5436 78.5899 12.1682C78.0975 11.7927 77.4912 11.605 76.771 11.605C76.0262 11.605 75.4046 11.7988 74.906 12.1866C74.4074 12.5744 74.0319 13.1099 73.7796 13.7932C73.5272 14.4764 73.401 15.2581 73.401 16.1383C73.401 17.0247 73.5272 17.8157 73.7796 18.5112C74.0381 19.2006 74.4166 19.7453 74.9152 20.1454C75.42 20.5394 76.0386 20.7364 76.771 20.7364ZM95.8648 17.2648V9.04743H99.2071V23.2292H95.9664V20.7087H95.8186C95.4986 21.5027 94.9723 22.1521 94.2398 22.6568C93.5135 23.1615 92.6179 23.4139 91.553 23.4139C90.6236 23.4139 89.8018 23.2077 89.0878 22.7953C88.3799 22.3767 87.826 21.7704 87.4259 20.9764C87.0258 20.1762 86.8257 19.2098 86.8257 18.0773V9.04743H90.1681V17.5602C90.1681 18.4589 90.4143 19.1729 90.9067 19.7023C91.3991 20.2316 92.0454 20.4963 92.8456 20.4963C93.338 20.4963 93.8151 20.3763 94.2767 20.1362C94.7384 19.8962 95.1169 19.5391 95.4124 19.0652C95.714 18.5851 95.8648 17.9849 95.8648 17.2648ZM108.922 23.5062C107.501 23.5062 106.273 23.2108 105.239 22.6199C104.211 22.0228 103.42 21.1795 102.866 20.09C102.312 18.9944 102.035 17.7049 102.035 16.2214C102.035 14.7626 102.312 13.4823 102.866 12.3805C103.426 11.2726 104.208 10.4108 105.211 9.7953C106.214 9.17361 107.393 8.86277 108.747 8.86277C109.621 8.86277 110.446 9.00434 111.222 9.28749C112.003 9.56447 112.693 9.99535 113.29 10.5801C113.893 11.1649 114.367 11.9096 114.712 12.8145C115.056 13.7131 115.229 14.7842 115.229 16.0275V17.0524H103.604V14.7996H112.025C112.019 14.1594 111.88 13.59 111.609 13.0915C111.338 12.5867 110.96 12.1897 110.474 11.9004C109.994 11.6111 109.433 11.4665 108.793 11.4665C108.11 11.4665 107.51 11.6327 106.993 11.965C106.476 12.2913 106.073 12.7221 105.783 13.2577C105.5 13.787 105.355 14.3687 105.349 15.0027V16.9693C105.349 17.7941 105.5 18.502 105.802 19.0929C106.103 19.6776 106.525 20.127 107.067 20.4409C107.608 20.7487 108.242 20.9025 108.969 20.9025C109.455 20.9025 109.895 20.8348 110.289 20.6994C110.683 20.5578 111.025 20.3516 111.314 20.0808C111.603 19.81 111.822 19.4745 111.969 19.0744L115.09 19.4253C114.893 20.2501 114.518 20.9703 113.964 21.5858C113.416 22.1952 112.714 22.6691 111.859 23.0077C111.003 23.34 110.024 23.5062 108.922 23.5062ZM128.586 23.5155C127.688 23.5155 126.878 23.3554 126.158 23.0354C125.444 22.7091 124.878 22.229 124.459 21.595C124.047 20.961 123.841 20.1793 123.841 19.2498C123.841 18.4497 123.988 17.788 124.284 17.2648C124.579 16.7416 124.982 16.323 125.493 16.0091C126.004 15.6952 126.58 15.4582 127.22 15.2981C127.866 15.1319 128.534 15.0119 129.223 14.9381C130.054 14.8519 130.728 14.7749 131.245 14.7072C131.763 14.6334 132.138 14.5226 132.372 14.3748C132.612 14.221 132.732 13.984 132.732 13.6639V13.6085C132.732 12.913 132.526 12.3744 132.113 11.9927C131.701 11.6111 131.107 11.4203 130.331 11.4203C129.513 11.4203 128.863 11.5988 128.383 11.9558C127.909 12.3128 127.589 12.7345 127.423 13.2207L124.302 12.7775C124.549 11.9158 124.955 11.1956 125.521 10.617C126.087 10.0323 126.78 9.59525 127.598 9.30595C128.417 9.0105 129.322 8.86277 130.313 8.86277C130.996 8.86277 131.676 8.94279 132.353 9.10283C133.031 9.26286 133.649 9.52754 134.209 9.89686C134.769 10.26 135.219 10.7555 135.557 11.3834C135.902 12.0112 136.074 12.796 136.074 13.7378V23.2292H132.861V21.2811H132.75C132.547 21.675 132.261 22.0444 131.892 22.389C131.529 22.7276 131.07 23.0015 130.516 23.2108C129.968 23.4139 129.325 23.5155 128.586 23.5155ZM129.454 21.0595C130.125 21.0595 130.707 20.9272 131.199 20.6625C131.692 20.3917 132.07 20.0346 132.335 19.5915C132.606 19.1483 132.741 18.6651 132.741 18.1419V16.4707C132.637 16.5569 132.458 16.6369 132.206 16.7108C131.959 16.7846 131.682 16.8493 131.375 16.9047C131.067 16.9601 130.762 17.0093 130.461 17.0524C130.159 17.0955 129.897 17.1324 129.676 17.1632C129.177 17.2309 128.731 17.3417 128.337 17.4956C127.943 17.6495 127.632 17.8649 127.405 18.1419C127.177 18.4127 127.063 18.7636 127.063 19.1944C127.063 19.81 127.288 20.2747 127.737 20.5886C128.186 20.9025 128.759 21.0595 129.454 21.0595ZM148.899 28.5474V20.9949H148.76C148.588 21.3396 148.339 21.7058 148.013 22.0936C147.686 22.4752 147.255 22.8015 146.72 23.0723C146.184 23.3431 145.51 23.4785 144.698 23.4785C143.584 23.4785 142.587 23.1923 141.706 22.6199C140.826 22.0474 140.131 21.2165 139.62 20.127C139.109 19.0375 138.853 17.7141 138.853 16.1568C138.853 14.581 139.112 13.2515 139.629 12.1682C140.152 11.0787 140.857 10.2569 141.743 9.70297C142.63 9.14284 143.618 8.86277 144.707 8.86277C145.538 8.86277 146.221 9.00434 146.757 9.28749C147.292 9.56447 147.717 9.89994 148.031 10.2939C148.345 10.6817 148.588 11.0479 148.76 11.3926H148.964V9.04743H152.25V28.5474H148.899ZM145.63 20.7364C146.338 20.7364 146.941 20.5455 147.44 20.1639C147.939 19.7761 148.317 19.2375 148.576 18.5481C148.834 17.8587 148.964 17.0555 148.964 16.1383C148.964 15.2212 148.834 14.4241 148.576 13.747C148.323 13.0699 147.948 12.5436 147.449 12.1682C146.957 11.7927 146.351 11.605 145.63 11.605C144.886 11.605 144.264 11.7988 143.765 12.1866C143.267 12.5744 142.891 13.1099 142.639 13.7932C142.387 14.4764 142.26 15.2581 142.26 16.1383C142.26 17.0247 142.387 17.8157 142.639 18.5112C142.897 19.2006 143.276 19.7453 143.775 20.1454C144.279 20.5394 144.898 20.7364 145.63 20.7364ZM164.724 17.2648V9.04743H168.066V23.2292H164.826V20.7087H164.678C164.358 21.5027 163.832 22.1521 163.099 22.6568C162.373 23.1615 161.477 23.4139 160.412 23.4139C159.483 23.4139 158.661 23.2077 157.947 22.7953C157.239 22.3767 156.685 21.7704 156.285 20.9764C155.885 20.1762 155.685 19.2098 155.685 18.0773V9.04743H159.027V17.5602C159.027 18.4589 159.274 19.1729 159.766 19.7023C160.258 20.2316 160.905 20.4963 161.705 20.4963C162.197 20.4963 162.674 20.3763 163.136 20.1362C163.598 19.8962 163.976 19.5391 164.272 19.0652C164.573 18.5851 164.724 17.9849 164.724 17.2648ZM171.503 23.2292V9.04743H174.846V23.2292H171.503ZM173.184 7.03465C172.655 7.03465 172.199 6.85922 171.817 6.50837C171.436 6.15136 171.245 5.72357 171.245 5.22499C171.245 4.72025 171.436 4.29246 171.817 3.9416C172.199 3.5846 172.655 3.40609 173.184 3.40609C173.719 3.40609 174.175 3.5846 174.55 3.9416C174.932 4.29246 175.123 4.72025 175.123 5.22499C175.123 5.72357 174.932 6.15136 174.55 6.50837C174.175 6.85922 173.719 7.03465 173.184 7.03465ZM184.732 28.5474V9.04743H188.019V11.3926H188.213C188.385 11.0479 188.628 10.6817 188.942 10.2939C189.256 9.89994 189.681 9.56447 190.216 9.28749C190.752 9.00434 191.435 8.86277 192.266 8.86277C193.362 8.86277 194.35 9.14284 195.23 9.70297C196.116 10.2569 196.818 11.0787 197.335 12.1682C197.858 13.2515 198.12 14.581 198.12 16.1568C198.12 17.7141 197.864 19.0375 197.353 20.127C196.843 21.2165 196.147 22.0474 195.267 22.6199C194.387 23.1923 193.389 23.4785 192.275 23.4785C191.463 23.4785 190.789 23.3431 190.253 23.0723C189.718 22.8015 189.287 22.4752 188.961 22.0936C188.641 21.7058 188.391 21.3396 188.213 20.9949H188.074V28.5474H184.732ZM188.01 16.1383C188.01 17.0555 188.139 17.8587 188.397 18.5481C188.662 19.2375 189.041 19.7761 189.533 20.1639C190.032 20.5455 190.635 20.7364 191.343 20.7364C192.081 20.7364 192.7 20.5394 193.199 20.1454C193.697 19.7453 194.073 19.2006 194.325 18.5112C194.584 17.8157 194.713 17.0247 194.713 16.1383C194.713 15.2581 194.587 14.4764 194.334 13.7932C194.082 13.1099 193.706 12.5744 193.208 12.1866C192.709 11.7988 192.088 11.605 191.343 11.605C190.629 11.605 190.022 11.7927 189.524 12.1682C189.025 12.5436 188.647 13.0699 188.388 13.747C188.136 14.4241 188.01 15.2212 188.01 16.1383ZM205.063 23.5155C204.164 23.5155 203.355 23.3554 202.635 23.0354C201.921 22.7091 201.354 22.229 200.936 21.595C200.523 20.961 200.317 20.1793 200.317 19.2498C200.317 18.4497 200.465 17.788 200.76 17.2648C201.056 16.7416 201.459 16.323 201.97 16.0091C202.481 15.6952 203.056 15.4582 203.696 15.2981C204.343 15.1319 205.011 15.0119 205.7 14.9381C206.531 14.8519 207.205 14.7749 207.722 14.7072C208.239 14.6334 208.615 14.5226 208.848 14.3748C209.089 14.221 209.209 13.984 209.209 13.6639V13.6085C209.209 12.913 209.002 12.3744 208.59 11.9927C208.178 11.6111 207.584 11.4203 206.808 11.4203C205.989 11.4203 205.34 11.5988 204.86 11.9558C204.386 12.3128 204.066 12.7345 203.9 13.2207L200.779 12.7775C201.025 11.9158 201.431 11.1956 201.998 10.617C202.564 10.0323 203.256 9.59525 204.075 9.30595C204.894 9.0105 205.799 8.86277 206.79 8.86277C207.473 8.86277 208.153 8.94279 208.83 9.10283C209.507 9.26286 210.126 9.52754 210.686 9.89686C211.246 10.26 211.695 10.7555 212.034 11.3834C212.379 12.0112 212.551 12.796 212.551 13.7378V23.2292H209.338V21.2811H209.227C209.024 21.675 208.738 22.0444 208.368 22.389C208.005 22.7276 207.547 23.0015 206.993 23.2108C206.445 23.4139 205.802 23.5155 205.063 23.5155ZM205.931 21.0595C206.602 21.0595 207.183 20.9272 207.676 20.6625C208.168 20.3917 208.547 20.0346 208.812 19.5915C209.082 19.1483 209.218 18.6651 209.218 18.1419V16.4707C209.113 16.5569 208.935 16.6369 208.682 16.7108C208.436 16.7846 208.159 16.8493 207.851 16.9047C207.544 16.9601 207.239 17.0093 206.937 17.0524C206.636 17.0955 206.374 17.1324 206.152 17.1632C205.654 17.2309 205.208 17.3417 204.814 17.4956C204.42 17.6495 204.109 17.8649 203.881 18.1419C203.653 18.4127 203.54 18.7636 203.54 19.1944C203.54 19.81 203.764 20.2747 204.214 20.5886C204.663 20.9025 205.235 21.0595 205.931 21.0595ZM215.912 23.2292V9.04743H219.152V11.4111H219.3C219.559 10.5924 220.002 9.96149 220.63 9.51831C221.264 9.06897 221.987 8.8443 222.799 8.8443C222.984 8.8443 223.19 8.85354 223.418 8.872C223.652 8.88431 223.846 8.90586 224 8.93663V12.0112C223.858 11.962 223.633 11.9189 223.326 11.8819C223.024 11.8389 222.732 11.8173 222.449 11.8173C221.839 11.8173 221.291 11.9497 220.805 12.2143C220.325 12.4729 219.946 12.8329 219.669 13.2946C219.392 13.7562 219.254 14.2887 219.254 14.8919V23.2292H215.912ZM230.047 23.5155C229.149 23.5155 228.339 23.3554 227.619 23.0354C226.905 22.7091 226.339 22.229 225.92 21.595C225.508 20.961 225.302 20.1793 225.302 19.2498C225.302 18.4497 225.449 17.788 225.745 17.2648C226.04 16.7416 226.443 16.323 226.954 16.0091C227.465 15.6952 228.041 15.4582 228.681 15.2981C229.327 15.1319 229.995 15.0119 230.684 14.9381C231.515 14.8519 232.189 14.7749 232.706 14.7072C233.223 14.6334 233.599 14.5226 233.833 14.3748C234.073 14.221 234.193 13.984 234.193 13.6639V13.6085C234.193 12.913 233.987 12.3744 233.574 11.9927C233.162 11.6111 232.568 11.4203 231.792 11.4203C230.974 11.4203 230.324 11.5988 229.844 11.9558C229.37 12.3128 229.05 12.7345 228.884 13.2207L225.763 12.7775C226.009 11.9158 226.416 11.1956 226.982 10.617C227.548 10.0323 228.241 9.59525 229.059 9.30595C229.878 9.0105 230.783 8.86277 231.774 8.86277C232.457 8.86277 233.137 8.94279 233.814 9.10283C234.491 9.26286 235.11 9.52754 235.67 9.89686C236.23 10.26 236.68 10.7555 237.018 11.3834C237.363 12.0112 237.535 12.796 237.535 13.7378V23.2292H234.322V21.2811H234.211C234.008 21.675 233.722 22.0444 233.353 22.389C232.99 22.7276 232.531 23.0015 231.977 23.2108C231.429 23.4139 230.786 23.5155 230.047 23.5155ZM230.915 21.0595C231.586 21.0595 232.168 20.9272 232.66 20.6625C233.153 20.3917 233.531 20.0346 233.796 19.5915C234.067 19.1483 234.202 18.6651 234.202 18.1419V16.4707C234.098 16.5569 233.919 16.6369 233.667 16.7108C233.42 16.7846 233.143 16.8493 232.836 16.9047C232.528 16.9601 232.223 17.0093 231.922 17.0524C231.62 17.0955 231.358 17.1324 231.137 17.1632C230.638 17.2309 230.192 17.3417 229.798 17.4956C229.404 17.6495 229.093 17.8649 228.866 18.1419C228.638 18.4127 228.524 18.7636 228.524 19.1944C228.524 19.81 228.749 20.2747 229.198 20.5886C229.647 20.9025 230.22 21.0595 230.915 21.0595ZM251.426 23.5155C250.528 23.5155 249.718 23.3554 248.998 23.0354C248.284 22.7091 247.718 22.229 247.299 21.595C246.887 20.961 246.68 20.1793 246.68 19.2498C246.68 18.4497 246.828 17.788 247.124 17.2648C247.419 16.7416 247.822 16.323 248.333 16.0091C248.844 15.6952 249.42 15.4582 250.06 15.2981C250.706 15.1319 251.374 15.0119 252.063 14.9381C252.894 14.8519 253.568 14.7749 254.085 14.7072C254.602 14.6334 254.978 14.5226 255.212 14.3748C255.452 14.221 255.572 13.984 255.572 13.6639V13.6085C255.572 12.913 255.366 12.3744 254.953 11.9927C254.541 11.6111 253.947 11.4203 253.171 11.4203C252.353 11.4203 251.703 11.5988 251.223 11.9558C250.749 12.3128 250.429 12.7345 250.263 13.2207L247.142 12.7775C247.388 11.9158 247.795 11.1956 248.361 10.617C248.927 10.0323 249.62 9.59525 250.438 9.30595C251.257 9.0105 252.162 8.86277 253.153 8.86277C253.836 8.86277 254.516 8.94279 255.193 9.10283C255.87 9.26286 256.489 9.52754 257.049 9.89686C257.609 10.26 258.059 10.7555 258.397 11.3834C258.742 12.0112 258.914 12.796 258.914 13.7378V23.2292H255.701V21.2811H255.59C255.387 21.675 255.101 22.0444 254.732 22.389C254.368 22.7276 253.91 23.0015 253.356 23.2108C252.808 23.4139 252.165 23.5155 251.426 23.5155ZM252.294 21.0595C252.965 21.0595 253.547 20.9272 254.039 20.6625C254.532 20.3917 254.91 20.0346 255.175 19.5915C255.446 19.1483 255.581 18.6651 255.581 18.1419V16.4707C255.476 16.5569 255.298 16.6369 255.046 16.7108C254.799 16.7846 254.522 16.8493 254.215 16.9047C253.907 16.9601 253.602 17.0093 253.301 17.0524C252.999 17.0955 252.737 17.1324 252.516 17.1632C252.017 17.2309 251.571 17.3417 251.177 17.4956C250.783 17.6495 250.472 17.8649 250.244 18.1419C250.017 18.4127 249.903 18.7636 249.903 19.1944C249.903 19.81 250.127 20.2747 250.577 20.5886C251.026 20.9025 251.599 21.0595 252.294 21.0595ZM268.461 23.5062C267.045 23.5062 265.83 23.1954 264.814 22.5737C263.805 21.952 263.026 21.0934 262.478 19.9977C261.936 18.8959 261.666 17.6279 261.666 16.1937C261.666 14.7534 261.943 13.4823 262.497 12.3805C263.051 11.2726 263.832 10.4108 264.842 9.7953C265.857 9.17361 267.058 8.86277 268.443 8.86277C269.594 8.86277 270.612 9.07513 271.499 9.49984C272.391 9.91841 273.102 10.5124 273.631 11.2818C274.161 12.0451 274.462 12.9376 274.536 13.9594H271.342C271.212 13.2761 270.905 12.7068 270.418 12.2513C269.938 11.7896 269.295 11.5588 268.489 11.5588C267.805 11.5588 267.205 11.7435 266.688 12.1128C266.171 12.4759 265.768 12.9991 265.479 13.6824C265.196 14.3656 265.054 15.1843 265.054 16.1383C265.054 17.1047 265.196 17.9357 265.479 18.6312C265.762 19.3206 266.159 19.8531 266.67 20.2285C267.187 20.5979 267.793 20.7825 268.489 20.7825C268.981 20.7825 269.421 20.6902 269.809 20.5055C270.203 20.3147 270.532 20.0408 270.797 19.6838C271.062 19.3268 271.243 18.8928 271.342 18.3819H274.536C274.456 19.3853 274.161 20.2747 273.65 21.0503C273.139 21.8197 272.444 22.4229 271.563 22.8599C270.683 23.2908 269.649 23.5062 268.461 23.5062ZM283.559 23.5062C282.137 23.5062 280.909 23.2108 279.875 22.6199C278.847 22.0228 278.056 21.1795 277.502 20.09C276.948 18.9944 276.671 17.7049 276.671 16.2214C276.671 14.7626 276.948 13.4823 277.502 12.3805C278.063 11.2726 278.844 10.4108 279.848 9.7953C280.851 9.17361 282.03 8.86277 283.384 8.86277C284.258 8.86277 285.083 9.00434 285.858 9.28749C286.64 9.56447 287.329 9.99535 287.926 10.5801C288.53 11.1649 289.004 11.9096 289.348 12.8145C289.693 13.7131 289.865 14.7842 289.865 16.0275V17.0524H278.241V14.7996H286.661C286.655 14.1594 286.517 13.59 286.246 13.0915C285.975 12.5867 285.597 12.1897 285.11 11.9004C284.63 11.6111 284.07 11.4665 283.43 11.4665C282.747 11.4665 282.147 11.6327 281.63 11.965C281.112 12.2913 280.709 12.7221 280.42 13.2577C280.137 13.787 279.992 14.3687 279.986 15.0027V16.9693C279.986 17.7941 280.137 18.502 280.438 19.0929C280.74 19.6776 281.162 20.127 281.703 20.4409C282.245 20.7487 282.879 20.9025 283.605 20.9025C284.092 20.9025 284.532 20.8348 284.926 20.6994C285.32 20.5578 285.661 20.3516 285.951 20.0808C286.24 19.81 286.458 19.4745 286.606 19.0744L289.727 19.4253C289.53 20.2501 289.154 20.9703 288.6 21.5858C288.053 22.1952 287.351 22.6691 286.495 23.0077C285.64 23.34 284.661 23.5062 283.559 23.5062ZM303.902 12.796L300.855 13.1284C300.769 12.8206 300.618 12.5313 300.402 12.2605C300.193 11.9897 299.91 11.7712 299.553 11.605C299.196 11.4388 298.759 11.3557 298.242 11.3557C297.546 11.3557 296.962 11.5065 296.488 11.8081C296.02 12.1097 295.789 12.5006 295.795 12.9807C295.789 13.3931 295.94 13.7285 296.248 13.9871C296.562 14.2456 297.079 14.4579 297.799 14.6241L300.218 15.1412C301.56 15.4305 302.557 15.889 303.209 16.5169C303.868 17.1447 304.2 17.9665 304.206 18.9821C304.2 19.8746 303.939 20.6625 303.422 21.3457C302.911 22.0228 302.2 22.5522 301.289 22.9338C300.378 23.3154 299.331 23.5062 298.15 23.5062C296.414 23.5062 295.017 23.1431 293.958 22.4167C292.899 21.6843 292.268 20.6656 292.065 19.3606L295.324 19.0467C295.472 19.6869 295.786 20.1701 296.266 20.4963C296.746 20.8225 297.371 20.9856 298.14 20.9856C298.934 20.9856 299.571 20.8225 300.052 20.4963C300.538 20.1701 300.781 19.7669 300.781 19.2868C300.781 18.8805 300.624 18.5451 300.31 18.2804C300.002 18.0157 299.522 17.8126 298.87 17.671L296.451 17.1632C295.09 16.8801 294.084 16.403 293.432 15.7321C292.779 15.055 292.456 14.1994 292.462 13.1653C292.456 12.2913 292.693 11.5342 293.173 10.894C293.659 10.2477 294.333 9.74913 295.195 9.39828C296.063 9.04127 297.063 8.86277 298.196 8.86277C299.858 8.86277 301.166 9.2167 302.12 9.92456C303.08 10.6324 303.674 11.5896 303.902 12.796ZM318.171 12.796L315.124 13.1284C315.038 12.8206 314.887 12.5313 314.672 12.2605C314.463 11.9897 314.18 11.7712 313.823 11.605C313.466 11.4388 313.028 11.3557 312.511 11.3557C311.816 11.3557 311.231 11.5065 310.757 11.8081C310.289 12.1097 310.059 12.5006 310.065 12.9807C310.059 13.3931 310.209 13.7285 310.517 13.9871C310.831 14.2456 311.348 14.4579 312.068 14.6241L314.487 15.1412C315.829 15.4305 316.826 15.889 317.479 16.5169C318.137 17.1447 318.47 17.9665 318.476 18.9821C318.47 19.8746 318.208 20.6625 317.691 21.3457C317.18 22.0228 316.469 22.5522 315.558 22.9338C314.647 23.3154 313.601 23.5062 312.419 23.5062C310.683 23.5062 309.286 23.1431 308.227 22.4167C307.169 21.6843 306.538 20.6656 306.335 19.3606L309.594 19.0467C309.742 19.6869 310.055 20.1701 310.536 20.4963C311.016 20.8225 311.64 20.9856 312.41 20.9856C313.204 20.9856 313.841 20.8225 314.321 20.4963C314.807 20.1701 315.051 19.7669 315.051 19.2868C315.051 18.8805 314.894 18.5451 314.58 18.2804C314.272 18.0157 313.792 17.8126 313.139 17.671L310.72 17.1632C309.36 16.8801 308.354 16.403 307.701 15.7321C307.049 15.055 306.725 14.1994 306.732 13.1653C306.725 12.2913 306.962 11.5342 307.443 10.894C307.929 10.2477 308.603 9.74913 309.465 9.39828C310.332 9.04127 311.333 8.86277 312.465 8.86277C314.127 8.86277 315.435 9.2167 316.389 9.92456C317.35 10.6324 317.944 11.5896 318.171 12.796ZM325.313 23.5155C324.414 23.5155 323.605 23.3554 322.885 23.0354C322.171 22.7091 321.604 22.229 321.186 21.595C320.773 20.961 320.567 20.1793 320.567 19.2498C320.567 18.4497 320.715 17.788 321.01 17.2648C321.306 16.7416 321.709 16.323 322.22 16.0091C322.731 15.6952 323.306 15.4582 323.946 15.2981C324.593 15.1319 325.261 15.0119 325.95 14.9381C326.781 14.8519 327.455 14.7749 327.972 14.7072C328.489 14.6334 328.865 14.5226 329.098 14.3748C329.339 14.221 329.459 13.984 329.459 13.6639V13.6085C329.459 12.913 329.252 12.3744 328.84 11.9927C328.428 11.6111 327.834 11.4203 327.058 11.4203C326.239 11.4203 325.59 11.5988 325.11 11.9558C324.636 12.3128 324.316 12.7345 324.15 13.2207L321.029 12.7775C321.275 11.9158 321.681 11.1956 322.248 10.617C322.814 10.0323 323.506 9.59525 324.325 9.30595C325.144 9.0105 326.049 8.86277 327.04 8.86277C327.723 8.86277 328.403 8.94279 329.08 9.10283C329.757 9.26286 330.376 9.52754 330.936 9.89686C331.496 10.26 331.945 10.7555 332.284 11.3834C332.629 12.0112 332.801 12.796 332.801 13.7378V23.2292H329.588V21.2811H329.477C329.274 21.675 328.988 22.0444 328.618 22.389C328.255 22.7276 327.797 23.0015 327.243 23.2108C326.695 23.4139 326.052 23.5155 325.313 23.5155ZM326.181 21.0595C326.852 21.0595 327.433 20.9272 327.926 20.6625C328.418 20.3917 328.797 20.0346 329.062 19.5915C329.332 19.1483 329.468 18.6651 329.468 18.1419V16.4707C329.363 16.5569 329.185 16.6369 328.932 16.7108C328.686 16.7846 328.409 16.8493 328.101 16.9047C327.794 16.9601 327.489 17.0093 327.187 17.0524C326.886 17.0955 326.624 17.1324 326.402 17.1632C325.904 17.2309 325.458 17.3417 325.064 17.4956C324.67 17.6495 324.359 17.8649 324.131 18.1419C323.903 18.4127 323.79 18.7636 323.79 19.1944C323.79 19.81 324.014 20.2747 324.464 20.5886C324.913 20.9025 325.485 21.0595 326.181 21.0595ZM336.162 23.2292V9.04743H339.402V11.4111H339.55C339.809 10.5924 340.252 9.96149 340.88 9.51831C341.514 9.06897 342.237 8.8443 343.049 8.8443C343.234 8.8443 343.44 8.85354 343.668 8.872C343.902 8.88431 344.096 8.90586 344.25 8.93663V12.0112C344.108 11.962 343.883 11.9189 343.576 11.8819C343.274 11.8389 342.982 11.8173 342.699 11.8173C342.089 11.8173 341.541 11.9497 341.055 12.2143C340.575 12.4729 340.196 12.8329 339.919 13.2946C339.642 13.7562 339.504 14.2887 339.504 14.8919V23.2292H336.162ZM359.106 23.5062C357.721 23.5062 356.52 23.2015 355.505 22.5922C354.489 21.9828 353.701 21.1303 353.141 20.0346C352.587 18.939 352.31 17.6587 352.31 16.1937C352.31 14.7288 352.587 13.4454 353.141 12.3436C353.701 11.2418 354.489 10.3862 355.505 9.77683C356.52 9.16746 357.721 8.86277 359.106 8.86277C360.491 8.86277 361.691 9.16746 362.706 9.77683C363.722 10.3862 364.507 11.2418 365.061 12.3436C365.621 13.4454 365.901 14.7288 365.901 16.1937C365.901 17.6587 365.621 18.939 365.061 20.0346C364.507 21.1303 363.722 21.9828 362.706 22.5922C361.691 23.2015 360.491 23.5062 359.106 23.5062ZM359.124 20.8287C359.875 20.8287 360.503 20.6225 361.008 20.2101C361.512 19.7915 361.888 19.2314 362.134 18.5297C362.386 17.828 362.513 17.0462 362.513 16.1845C362.513 15.3166 362.386 14.5318 362.134 13.8301C361.888 13.1222 361.512 12.559 361.008 12.1405C360.503 11.7219 359.875 11.5126 359.124 11.5126C358.355 11.5126 357.714 11.7219 357.204 12.1405C356.699 12.559 356.32 13.1222 356.068 13.8301C355.822 14.5318 355.699 15.3166 355.699 16.1845C355.699 17.0462 355.822 17.828 356.068 18.5297C356.32 19.2314 356.699 19.7915 357.204 20.2101C357.714 20.6225 358.355 20.8287 359.124 20.8287ZM381.373 23.5062C379.957 23.5062 378.742 23.1954 377.726 22.5737C376.717 21.952 375.938 21.0934 375.39 19.9977C374.849 18.8959 374.578 17.6279 374.578 16.1937C374.578 14.7534 374.855 13.4823 375.409 12.3805C375.963 11.2726 376.744 10.4108 377.754 9.7953C378.769 9.17361 379.97 8.86277 381.355 8.86277C382.506 8.86277 383.524 9.07513 384.411 9.49984C385.303 9.91841 386.014 10.5124 386.544 11.2818C387.073 12.0451 387.375 12.9376 387.448 13.9594H384.254C384.125 13.2761 383.817 12.7068 383.331 12.2513C382.85 11.7896 382.207 11.5588 381.401 11.5588C380.718 11.5588 380.117 11.7435 379.6 12.1128C379.083 12.4759 378.68 12.9991 378.391 13.6824C378.108 14.3656 377.966 15.1843 377.966 16.1383C377.966 17.1047 378.108 17.9357 378.391 18.6312C378.674 19.3206 379.071 19.8531 379.582 20.2285C380.099 20.5979 380.705 20.7825 381.401 20.7825C381.893 20.7825 382.333 20.6902 382.721 20.5055C383.115 20.3147 383.444 20.0408 383.709 19.6838C383.974 19.3268 384.155 18.8928 384.254 18.3819H387.448C387.368 19.3853 387.073 20.2747 386.562 21.0503C386.051 21.8197 385.356 22.4229 384.475 22.8599C383.595 23.2908 382.561 23.5062 381.373 23.5062ZM393.535 4.32016V23.2292H390.193V4.32016H393.535ZM396.972 23.2292V9.04743H400.315V23.2292H396.972ZM398.653 7.03465C398.123 7.03465 397.668 6.85922 397.286 6.50837C396.905 6.15136 396.714 5.72357 396.714 5.22499C396.714 4.72025 396.905 4.29246 397.286 3.9416C397.668 3.5846 398.123 3.40609 398.653 3.40609C399.188 3.40609 399.644 3.5846 400.019 3.9416C400.401 4.29246 400.592 4.72025 400.592 5.22499C400.592 5.72357 400.401 6.15136 400.019 6.50837C399.644 6.85922 399.188 7.03465 398.653 7.03465ZM403.752 28.5474V9.04743H407.038V11.3926H407.232C407.405 11.0479 407.648 10.6817 407.962 10.2939C408.276 9.89994 408.7 9.56447 409.236 9.28749C409.771 9.00434 410.455 8.86277 411.286 8.86277C412.381 8.86277 413.369 9.14284 414.249 9.70297C415.136 10.2569 415.837 11.0787 416.354 12.1682C416.878 13.2515 417.139 14.581 417.139 16.1568C417.139 17.7141 416.884 19.0375 416.373 20.127C415.862 21.2165 415.167 22.0474 414.286 22.6199C413.406 23.1923 412.409 23.4785 411.295 23.4785C410.482 23.4785 409.808 23.3431 409.273 23.0723C408.737 22.8015 408.306 22.4752 407.98 22.0936C407.66 21.7058 407.411 21.3396 407.232 20.9949H407.094V28.5474H403.752ZM407.029 16.1383C407.029 17.0555 407.158 17.8587 407.417 18.5481C407.682 19.2375 408.06 19.7761 408.553 20.1639C409.051 20.5455 409.654 20.7364 410.362 20.7364C411.101 20.7364 411.72 20.5394 412.218 20.1454C412.717 19.7453 413.092 19.2006 413.345 18.5112C413.603 17.8157 413.732 17.0247 413.732 16.1383C413.732 15.2581 413.606 14.4764 413.354 13.7932C413.101 13.1099 412.726 12.5744 412.227 12.1866C411.729 11.7988 411.107 11.605 410.362 11.605C409.648 11.605 409.042 11.7927 408.543 12.1682C408.045 12.5436 407.666 13.0699 407.408 13.747C407.155 14.4241 407.029 15.2212 407.029 16.1383ZM420.002 28.5474V9.04743H423.288V11.3926H423.482C423.655 11.0479 423.898 10.6817 424.212 10.2939C424.526 9.89994 424.95 9.56447 425.486 9.28749C426.021 9.00434 426.705 8.86277 427.536 8.86277C428.631 8.86277 429.619 9.14284 430.499 9.70297C431.386 10.2569 432.087 11.0787 432.604 12.1682C433.128 13.2515 433.389 14.581 433.389 16.1568C433.389 17.7141 433.134 19.0375 432.623 20.127C432.112 21.2165 431.417 22.0474 430.536 22.6199C429.656 23.1923 428.659 23.4785 427.545 23.4785C426.732 23.4785 426.058 23.3431 425.523 23.0723C424.987 22.8015 424.556 22.4752 424.23 22.0936C423.91 21.7058 423.661 21.3396 423.482 20.9949H423.344V28.5474H420.002ZM423.279 16.1383C423.279 17.0555 423.408 17.8587 423.667 18.5481C423.932 19.2375 424.31 19.7761 424.803 20.1639C425.301 20.5455 425.904 20.7364 426.612 20.7364C427.351 20.7364 427.97 20.5394 428.468 20.1454C428.967 19.7453 429.342 19.2006 429.595 18.5112C429.853 17.8157 429.982 17.0247 429.982 16.1383C429.982 15.2581 429.856 14.4764 429.604 13.7932C429.351 13.1099 428.976 12.5744 428.477 12.1866C427.979 11.7988 427.357 11.605 426.612 11.605C425.898 11.605 425.292 11.7927 424.793 12.1682C424.295 12.5436 423.916 13.0699 423.658 13.747C423.405 14.4241 423.279 15.2212 423.279 16.1383ZM436.252 23.2292V9.04743H439.594V23.2292H436.252ZM437.932 7.03465C437.403 7.03465 436.947 6.85922 436.565 6.50837C436.184 6.15136 435.993 5.72357 435.993 5.22499C435.993 4.72025 436.184 4.29246 436.565 3.9416C436.947 3.5846 437.403 3.40609 437.932 3.40609C438.467 3.40609 438.923 3.5846 439.298 3.9416C439.68 4.29246 439.871 4.72025 439.871 5.22499C439.871 5.72357 439.68 6.15136 439.298 6.50837C438.923 6.85922 438.467 7.03465 437.932 7.03465ZM446.373 14.9196V23.2292H443.031V9.04743H446.225V11.4572H446.392C446.718 10.6632 447.238 10.0323 447.952 9.56448C448.672 9.09667 449.562 8.86277 450.62 8.86277C451.599 8.86277 452.451 9.07205 453.178 9.49061C453.91 9.90917 454.477 10.5155 454.877 11.3095C455.283 12.1035 455.483 13.0668 455.477 14.1994V23.2292H452.134V14.7165C452.134 13.7685 451.888 13.0268 451.396 12.4913C450.91 11.9558 450.236 11.6881 449.374 11.6881C448.789 11.6881 448.269 11.8173 447.813 12.0758C447.364 12.3282 447.01 12.6944 446.752 13.1746C446.499 13.6547 446.373 14.2363 446.373 14.9196ZM465.042 28.8429C463.842 28.8429 462.811 28.6798 461.949 28.3535C461.087 28.0335 460.395 27.6026 459.872 27.0609C459.349 26.5193 458.985 25.9191 458.782 25.2605L461.792 24.5311C461.928 24.8081 462.125 25.082 462.383 25.3528C462.642 25.6298 462.989 25.8576 463.426 26.0361C463.87 26.2207 464.427 26.3131 465.098 26.3131C466.045 26.3131 466.83 26.0822 467.452 25.6206C468.074 25.1651 468.384 24.4141 468.384 23.3677V20.681H468.218C468.046 21.0256 467.794 21.3796 467.461 21.7427C467.135 22.1059 466.701 22.4106 466.159 22.6568C465.624 22.903 464.95 23.0261 464.137 23.0261C463.048 23.0261 462.06 22.7707 461.174 22.2598C460.293 21.7427 459.592 20.9733 459.068 19.9515C458.551 18.9236 458.293 17.6372 458.293 16.0922C458.293 14.5349 458.551 13.2207 459.068 12.1497C459.592 11.0725 460.296 10.2569 461.183 9.70297C462.069 9.14284 463.057 8.86277 464.147 8.86277C464.978 8.86277 465.661 9.00434 466.196 9.28749C466.738 9.56447 467.169 9.89994 467.489 10.2939C467.809 10.6817 468.052 11.0479 468.218 11.3926H468.403V9.04743H471.699V23.4601C471.699 24.6727 471.41 25.676 470.831 26.47C470.253 27.264 469.462 27.858 468.458 28.252C467.455 28.6459 466.316 28.8429 465.042 28.8429ZM465.07 20.404C465.778 20.404 466.381 20.2316 466.88 19.8869C467.378 19.5422 467.757 19.0467 468.015 18.4004C468.274 17.7541 468.403 16.9785 468.403 16.0737C468.403 15.1812 468.274 14.3995 468.015 13.7285C467.763 13.0576 467.387 12.5375 466.889 12.1682C466.396 11.7927 465.79 11.605 465.07 11.605C464.325 11.605 463.703 11.7988 463.205 12.1866C462.706 12.5744 462.331 13.1069 462.078 13.7839C461.826 14.4549 461.7 15.2181 461.7 16.0737C461.7 16.9416 461.826 17.7018 462.078 18.3542C462.337 19.0006 462.715 19.5053 463.214 19.8685C463.719 20.2255 464.337 20.404 465.07 20.404ZM487.76 23.5062C486.344 23.5062 485.128 23.1954 484.113 22.5737C483.103 21.952 482.325 21.0934 481.777 19.9977C481.235 18.8959 480.964 17.6279 480.964 16.1937C480.964 14.7534 481.241 13.4823 481.795 12.3805C482.349 11.2726 483.131 10.4108 484.141 9.7953C485.156 9.17361 486.356 8.86277 487.741 8.86277C488.892 8.86277 489.911 9.07513 490.797 9.49984C491.69 9.91841 492.401 10.5124 492.93 11.2818C493.46 12.0451 493.761 12.9376 493.835 13.9594H490.641C490.511 13.2761 490.204 12.7068 489.717 12.2513C489.237 11.7896 488.594 11.5588 487.788 11.5588C487.104 11.5588 486.504 11.7435 485.987 12.1128C485.47 12.4759 485.067 12.9991 484.778 13.6824C484.494 14.3656 484.353 15.1843 484.353 16.1383C484.353 17.1047 484.494 17.9357 484.778 18.6312C485.061 19.3206 485.458 19.8531 485.969 20.2285C486.486 20.5979 487.092 20.7825 487.788 20.7825C488.28 20.7825 488.72 20.6902 489.108 20.5055C489.502 20.3147 489.831 20.0408 490.096 19.6838C490.36 19.3268 490.542 18.8928 490.641 18.3819H493.835C493.755 19.3853 493.46 20.2747 492.949 21.0503C492.438 21.8197 491.742 22.4229 490.862 22.8599C489.982 23.2908 488.948 23.5062 487.76 23.5062ZM502.766 23.5062C501.381 23.5062 500.18 23.2015 499.165 22.5922C498.149 21.9828 497.361 21.1303 496.801 20.0346C496.247 18.939 495.97 17.6587 495.97 16.1937C495.97 14.7288 496.247 13.4454 496.801 12.3436C497.361 11.2418 498.149 10.3862 499.165 9.77683C500.18 9.16746 501.381 8.86277 502.766 8.86277C504.151 8.86277 505.351 9.16746 506.367 9.77683C507.382 10.3862 508.167 11.2418 508.721 12.3436C509.281 13.4454 509.561 14.7288 509.561 16.1937C509.561 17.6587 509.281 18.939 508.721 20.0346C508.167 21.1303 507.382 21.9828 506.367 22.5922C505.351 23.2015 504.151 23.5062 502.766 23.5062ZM502.784 20.8287C503.535 20.8287 504.163 20.6225 504.668 20.2101C505.172 19.7915 505.548 19.2314 505.794 18.5297C506.046 17.828 506.173 17.0462 506.173 16.1845C506.173 15.3166 506.046 14.5318 505.794 13.8301C505.548 13.1222 505.172 12.559 504.668 12.1405C504.163 11.7219 503.535 11.5126 502.784 11.5126C502.015 11.5126 501.375 11.7219 500.864 12.1405C500.359 12.559 499.98 13.1222 499.728 13.8301C499.482 14.5318 499.359 15.3166 499.359 16.1845C499.359 17.0462 499.482 17.828 499.728 18.5297C499.98 19.2314 500.359 19.7915 500.864 20.2101C501.375 20.6225 502.015 20.8287 502.784 20.8287ZM512.398 23.2292V9.04743H515.593V11.4572H515.759C516.054 10.6447 516.544 10.0107 517.227 9.55524C517.91 9.09359 518.726 8.86277 519.674 8.86277C520.634 8.86277 521.443 9.09667 522.102 9.56448C522.767 10.0261 523.234 10.657 523.505 11.4572H523.653C523.967 10.6694 524.496 10.0415 525.241 9.57371C525.992 9.09975 526.881 8.86277 527.909 8.86277C529.214 8.86277 530.279 9.27518 531.104 10.1C531.929 10.9248 532.341 12.1282 532.341 13.7101V23.2292H528.99V14.2271C528.99 13.3469 528.756 12.7037 528.288 12.2974C527.82 11.885 527.248 11.6788 526.571 11.6788C525.764 11.6788 525.133 11.9312 524.678 12.4359C524.228 12.9345 524.004 13.5839 524.004 14.3841V23.2292H520.726V14.0886C520.726 13.3561 520.505 12.7714 520.061 12.3344C519.624 11.8973 519.052 11.6788 518.344 11.6788C517.864 11.6788 517.427 11.8019 517.033 12.0481C516.639 12.2882 516.325 12.6298 516.091 13.073C515.857 13.51 515.74 14.0209 515.74 14.6057V23.2292H512.398ZM535.732 28.5474V9.04743H539.019V11.3926H539.213C539.385 11.0479 539.628 10.6817 539.942 10.2939C540.256 9.89994 540.681 9.56447 541.216 9.28749C541.752 9.00434 542.435 8.86277 543.266 8.86277C544.362 8.86277 545.35 9.14284 546.23 9.70297C547.116 10.2569 547.818 11.0787 548.335 12.1682C548.858 13.2515 549.12 14.581 549.12 16.1568C549.12 17.7141 548.864 19.0375 548.353 20.127C547.843 21.2165 547.147 22.0474 546.267 22.6199C545.387 23.1923 544.389 23.4785 543.275 23.4785C542.463 23.4785 541.789 23.3431 541.253 23.0723C540.718 22.8015 540.287 22.4752 539.961 22.0936C539.641 21.7058 539.391 21.3396 539.213 20.9949H539.074V28.5474H535.732ZM539.01 16.1383C539.01 17.0555 539.139 17.8587 539.397 18.5481C539.662 19.2375 540.041 19.7761 540.533 20.1639C541.032 20.5455 541.635 20.7364 542.343 20.7364C543.081 20.7364 543.7 20.5394 544.199 20.1454C544.697 19.7453 545.073 19.2006 545.325 18.5112C545.584 17.8157 545.713 17.0247 545.713 16.1383C545.713 15.2581 545.587 14.4764 545.334 13.7932C545.082 13.1099 544.706 12.5744 544.208 12.1866C543.709 11.7988 543.088 11.605 542.343 11.605C541.629 11.605 541.022 11.7927 540.524 12.1682C540.025 12.5436 539.647 13.0699 539.388 13.747C539.136 14.4241 539.01 15.2212 539.01 16.1383ZM555.324 4.32016V23.2292H551.982V4.32016H555.324ZM565.04 23.5062C563.618 23.5062 562.39 23.2108 561.356 22.6199C560.328 22.0228 559.537 21.1795 558.983 20.09C558.429 18.9944 558.152 17.7049 558.152 16.2214C558.152 14.7626 558.429 13.4823 558.983 12.3805C559.543 11.2726 560.325 10.4108 561.328 9.7953C562.331 9.17361 563.51 8.86277 564.864 8.86277C565.738 8.86277 566.563 9.00434 567.339 9.28749C568.12 9.56447 568.81 9.99535 569.407 10.5801C570.01 11.1649 570.484 11.9096 570.829 12.8145C571.173 13.7131 571.346 14.7842 571.346 16.0275V17.0524H559.722V14.7996H568.142C568.136 14.1594 567.997 13.59 567.726 13.0915C567.456 12.5867 567.077 12.1897 566.591 11.9004C566.111 11.6111 565.551 11.4665 564.91 11.4665C564.227 11.4665 563.627 11.6327 563.11 11.965C562.593 12.2913 562.19 12.7221 561.9 13.2577C561.617 13.787 561.473 14.3687 561.467 15.0027V16.9693C561.467 17.7941 561.617 18.502 561.919 19.0929C562.221 19.6776 562.642 20.127 563.184 20.4409C563.726 20.7487 564.36 20.9025 565.086 20.9025C565.572 20.9025 566.012 20.8348 566.406 20.6994C566.8 20.5578 567.142 20.3516 567.431 20.0808C567.72 19.81 567.939 19.4745 568.087 19.0744L571.207 19.4253C571.01 20.2501 570.635 20.9703 570.081 21.5858C569.533 22.1952 568.831 22.6691 567.976 23.0077C567.12 23.34 566.141 23.5062 565.04 23.5062ZM581.255 9.04743V11.6327H573.102V9.04743H581.255ZM575.115 5.6497H578.457V18.9636C578.457 19.413 578.525 19.7577 578.661 19.9977C578.802 20.2316 578.987 20.3917 579.215 20.4778C579.442 20.564 579.695 20.6071 579.972 20.6071C580.181 20.6071 580.372 20.5917 580.544 20.5609C580.723 20.5301 580.858 20.5024 580.95 20.4778L581.514 23.0908C581.335 23.1523 581.08 23.22 580.747 23.2939C580.421 23.3677 580.021 23.4108 579.547 23.4231C578.71 23.4478 577.956 23.3216 577.285 23.0446C576.614 22.7614 576.082 22.3244 575.688 21.7335C575.3 21.1426 575.109 20.404 575.115 19.5176V5.6497ZM590.084 23.5062C588.699 23.5062 587.499 23.2015 586.483 22.5922C585.468 21.9828 584.68 21.1303 584.12 20.0346C583.566 18.939 583.289 17.6587 583.289 16.1937C583.289 14.7288 583.566 13.4454 584.12 12.3436C584.68 11.2418 585.468 10.3862 586.483 9.77683C587.499 9.16746 588.699 8.86277 590.084 8.86277C591.469 8.86277 592.669 9.16746 593.685 9.77683C594.701 10.3862 595.485 11.2418 596.039 12.3436C596.599 13.4454 596.88 14.7288 596.88 16.1937C596.88 17.6587 596.599 18.939 596.039 20.0346C595.485 21.1303 594.701 21.9828 593.685 22.5922C592.669 23.2015 591.469 23.5062 590.084 23.5062ZM590.103 20.8287C590.853 20.8287 591.481 20.6225 591.986 20.2101C592.491 19.7915 592.866 19.2314 593.112 18.5297C593.365 17.828 593.491 17.0462 593.491 16.1845C593.491 15.3166 593.365 14.5318 593.112 13.8301C592.866 13.1222 592.491 12.559 591.986 12.1405C591.481 11.7219 590.853 11.5126 590.103 11.5126C589.333 11.5126 588.693 11.7219 588.182 12.1405C587.677 12.559 587.299 13.1222 587.046 13.8301C586.8 14.5318 586.677 15.3166 586.677 16.1845C586.677 17.0462 586.8 17.828 587.046 18.5297C587.299 19.2314 587.677 19.7915 588.182 20.2101C588.693 20.6225 589.333 20.8287 590.103 20.8287ZM603.807 4.32016L603.502 17.671H600.529L600.233 4.32016H603.807ZM602.015 23.4324C601.455 23.4324 600.975 23.2354 600.575 22.8415C600.181 22.4475 599.984 21.9674 599.984 21.4011C599.984 20.8471 600.181 20.3732 600.575 19.9792C600.975 19.5853 601.455 19.3883 602.015 19.3883C602.563 19.3883 603.037 19.5853 603.437 19.9792C603.843 20.3732 604.047 20.8471 604.047 21.4011C604.047 21.7766 603.951 22.1182 603.76 22.426C603.576 22.7337 603.33 22.98 603.022 23.1646C602.72 23.3431 602.385 23.4324 602.015 23.4324Z" fill="#111927"/>
<g filter="url(#filter0_d_568_495)">
<rect x="191" y="54.2292" width="260" height="60" rx="30" fill="#1A73BA"/>
<path d="M222.585 88.0574L225.6 77.9324H228.535L224.079 90.7292H222.146L222.585 88.0574ZM219.808 77.9324L222.813 88.0574L223.271 90.7292H221.319L216.89 77.9324H219.808ZM233.562 90.905C232.824 90.905 232.162 90.7878 231.576 90.5535C230.99 90.3132 230.492 89.9822 230.082 89.5603C229.678 89.1384 229.367 88.6492 229.15 88.0925C228.934 87.53 228.825 86.9324 228.825 86.2996V85.948C228.825 85.2273 228.928 84.5681 229.133 83.9705C229.338 83.3728 229.631 82.8542 230.012 82.4148C230.398 81.9753 230.867 81.6384 231.418 81.4041C231.969 81.1638 232.59 81.0437 233.281 81.0437C233.955 81.0437 234.553 81.155 235.074 81.3777C235.596 81.6003 236.032 81.9167 236.384 82.3269C236.741 82.7371 237.011 83.2292 237.192 83.8035C237.374 84.3718 237.465 85.0046 237.465 85.7019V86.7566H229.906V85.0691H234.978V84.8757C234.978 84.5242 234.913 84.2107 234.784 83.9353C234.661 83.6541 234.474 83.4314 234.222 83.2673C233.97 83.1033 233.647 83.0212 233.255 83.0212C232.921 83.0212 232.634 83.0945 232.394 83.241C232.153 83.3875 231.957 83.5925 231.805 83.8562C231.658 84.1199 231.547 84.4304 231.471 84.7878C231.4 85.1394 231.365 85.5261 231.365 85.948V86.2996C231.365 86.6804 231.418 87.032 231.523 87.3542C231.635 87.6765 231.79 87.9548 231.989 88.1892C232.194 88.4236 232.44 88.6052 232.728 88.7341C233.021 88.863 233.352 88.9275 233.721 88.9275C234.178 88.9275 234.603 88.8396 234.995 88.6638C235.394 88.4822 235.736 88.2097 236.023 87.8464L237.254 89.1824C237.055 89.4695 236.782 89.7449 236.437 90.0085C236.097 90.2722 235.687 90.489 235.206 90.6589C234.726 90.823 234.178 90.905 233.562 90.905ZM241.438 83.2937V90.7292H238.906V81.2195H241.288L241.438 83.2937ZM244.303 81.158L244.259 83.5046C244.136 83.4871 243.986 83.4724 243.811 83.4607C243.641 83.4431 243.485 83.4343 243.345 83.4343C242.987 83.4343 242.677 83.4812 242.413 83.575C242.155 83.6628 241.938 83.7947 241.763 83.9705C241.593 84.1462 241.464 84.3601 241.376 84.6121C241.294 84.864 241.247 85.1511 241.235 85.4734L240.726 85.3152C240.726 84.7 240.787 84.1345 240.91 83.6189C241.033 83.0974 241.212 82.6433 241.446 82.2566C241.687 81.8699 241.979 81.571 242.325 81.3601C242.671 81.1492 243.066 81.0437 243.512 81.0437C243.652 81.0437 243.796 81.0554 243.942 81.0789C244.089 81.0964 244.209 81.1228 244.303 81.158ZM254.639 81.2195V83.0125H249.102V81.2195H254.639ZM250.473 78.8728H253.004V87.864C253.004 88.1394 253.039 88.3503 253.109 88.4968C253.186 88.6433 253.297 88.7458 253.443 88.8044C253.59 88.8572 253.774 88.8835 253.997 88.8835C254.155 88.8835 254.296 88.8777 254.419 88.866C254.548 88.8484 254.656 88.8308 254.744 88.8132L254.753 90.6765C254.536 90.7468 254.302 90.8025 254.05 90.8435C253.798 90.8845 253.52 90.905 253.215 90.905C252.658 90.905 252.172 90.8142 251.756 90.6326C251.346 90.4451 251.029 90.1462 250.807 89.7361C250.584 89.3259 250.473 88.7869 250.473 88.1189V78.8728ZM255.447 86.071V85.8865C255.447 85.1892 255.547 84.5476 255.746 83.9617C255.945 83.3699 256.235 82.8572 256.616 82.4236C256.997 81.99 257.466 81.6531 258.022 81.4128C258.579 81.1667 259.218 81.0437 259.938 81.0437C260.659 81.0437 261.301 81.1667 261.863 81.4128C262.426 81.6531 262.897 81.99 263.278 82.4236C263.665 82.8572 263.958 83.3699 264.157 83.9617C264.356 84.5476 264.456 85.1892 264.456 85.8865V86.071C264.456 86.7625 264.356 87.4041 264.157 87.9958C263.958 88.5818 263.665 89.0945 263.278 89.5339C262.897 89.9675 262.429 90.3044 261.872 90.5447C261.315 90.7849 260.677 90.905 259.956 90.905C259.235 90.905 258.594 90.7849 258.031 90.5447C257.475 90.3044 257.003 89.9675 256.616 89.5339C256.235 89.0945 255.945 88.5818 255.746 87.9958C255.547 87.4041 255.447 86.7625 255.447 86.071ZM257.979 85.8865V86.071C257.979 86.4695 258.014 86.8416 258.084 87.1873C258.154 87.533 258.266 87.8376 258.418 88.1013C258.576 88.3591 258.781 88.5613 259.033 88.7078C259.285 88.8542 259.593 88.9275 259.956 88.9275C260.308 88.9275 260.609 88.8542 260.861 88.7078C261.113 88.5613 261.315 88.3591 261.468 88.1013C261.62 87.8376 261.731 87.533 261.802 87.1873C261.878 86.8416 261.916 86.4695 261.916 86.071V85.8865C261.916 85.4998 261.878 85.1365 261.802 84.7966C261.731 84.4509 261.617 84.1462 261.459 83.8826C261.307 83.613 261.104 83.4021 260.853 83.2498C260.601 83.0974 260.296 83.0212 259.938 83.0212C259.581 83.0212 259.276 83.0974 259.024 83.2498C258.778 83.4021 258.576 83.613 258.418 83.8826C258.266 84.1462 258.154 84.4509 258.084 84.7966C258.014 85.1365 257.979 85.4998 257.979 85.8865ZM271.628 88.655V77.2292H274.177V90.7292H271.883L271.628 88.655ZM265.616 86.0886V85.9041C265.616 85.1775 265.698 84.5183 265.862 83.9265C266.026 83.3289 266.267 82.8162 266.583 82.3884C266.899 81.9607 267.289 81.6296 267.752 81.3953C268.215 81.1609 268.742 81.0437 269.334 81.0437C269.891 81.0437 270.377 81.1609 270.793 81.3953C271.215 81.6296 271.572 81.9636 271.865 82.3972C272.164 82.825 272.404 83.3318 272.586 83.9177C272.768 84.4978 272.899 85.1335 272.981 85.825V86.2292C272.899 86.8914 272.768 87.5066 272.586 88.075C272.404 88.6433 272.164 89.1414 271.865 89.5691C271.572 89.991 271.215 90.3191 270.793 90.5535C270.371 90.7878 269.879 90.905 269.316 90.905C268.725 90.905 268.197 90.7849 267.734 90.5447C267.277 90.3044 266.891 89.9675 266.574 89.5339C266.264 89.1003 266.026 88.5906 265.862 88.0046C265.698 87.4187 265.616 86.78 265.616 86.0886ZM268.147 85.9041V86.0886C268.147 86.4812 268.177 86.8474 268.235 87.1873C268.3 87.5271 268.402 87.8289 268.543 88.0925C268.689 88.3503 268.877 88.5525 269.105 88.699C269.34 88.8396 269.624 88.9099 269.958 88.9099C270.392 88.9099 270.749 88.8132 271.03 88.6199C271.312 88.4207 271.525 88.1482 271.672 87.8025C271.824 87.4568 271.912 87.0583 271.936 86.6072V85.4558C271.918 85.0867 271.865 84.7556 271.777 84.4626C271.695 84.1638 271.572 83.9089 271.408 83.698C271.25 83.4871 271.051 83.323 270.811 83.2058C270.576 83.0886 270.298 83.03 269.976 83.03C269.647 83.03 269.366 83.1062 269.132 83.2585C268.897 83.405 268.707 83.6072 268.561 83.865C268.42 84.1228 268.314 84.4275 268.244 84.7791C268.18 85.1248 268.147 85.4998 268.147 85.9041ZM281.287 88.5847V84.3484C281.287 84.0437 281.237 83.783 281.138 83.5662C281.038 83.3435 280.883 83.1707 280.672 83.0476C280.467 82.9246 280.2 82.863 279.872 82.863C279.591 82.863 279.348 82.9128 279.143 83.0125C278.938 83.1062 278.779 83.2439 278.668 83.4255C278.557 83.6013 278.501 83.8093 278.501 84.0496H275.97C275.97 83.6453 276.063 83.2615 276.251 82.8982C276.438 82.5349 276.711 82.2156 277.068 81.9402C277.426 81.6589 277.851 81.4392 278.343 81.281C278.841 81.1228 279.397 81.0437 280.013 81.0437C280.751 81.0437 281.407 81.1667 281.981 81.4128C282.556 81.6589 283.007 82.0281 283.335 82.5203C283.669 83.0125 283.836 83.6277 283.836 84.366V88.4353C283.836 88.9568 283.868 89.3845 283.933 89.7185C283.997 90.0466 284.091 90.3337 284.214 90.5798V90.7292H281.656C281.533 90.4714 281.439 90.1492 281.375 89.7625C281.316 89.3699 281.287 88.9773 281.287 88.5847ZM281.621 84.9373L281.639 86.3699H280.224C279.89 86.3699 279.6 86.408 279.354 86.4841C279.107 86.5603 278.905 86.6687 278.747 86.8093C278.589 86.9441 278.472 87.1023 278.396 87.2839C278.325 87.4656 278.29 87.6648 278.29 87.8816C278.29 88.0984 278.34 88.2947 278.439 88.4705C278.539 88.6404 278.683 88.7751 278.87 88.8748C279.058 88.9685 279.277 89.0154 279.529 89.0154C279.91 89.0154 280.241 88.9392 280.522 88.7869C280.804 88.6345 281.021 88.447 281.173 88.2244C281.331 88.0017 281.413 87.7908 281.419 87.5916L282.087 88.6638C281.993 88.9041 281.864 89.1531 281.7 89.4109C281.542 89.6687 281.34 89.9119 281.094 90.1404C280.848 90.363 280.552 90.5476 280.206 90.6941C279.86 90.8347 279.45 90.905 278.976 90.905C278.372 90.905 277.824 90.7849 277.332 90.5447C276.846 90.2986 276.459 89.9617 276.172 89.5339C275.891 89.1003 275.75 88.6082 275.75 88.0574C275.75 87.5593 275.844 87.1169 276.031 86.7302C276.219 86.3435 276.494 86.0183 276.857 85.7546C277.227 85.4851 277.687 85.283 278.237 85.1482C278.788 85.0076 279.427 84.9373 280.153 84.9373H281.621ZM290.929 88.1013C290.929 87.9197 290.876 87.7556 290.771 87.6091C290.665 87.4626 290.469 87.3279 290.182 87.2048C289.9 87.0759 289.493 86.9587 288.96 86.8533C288.479 86.7478 288.031 86.616 287.615 86.4578C287.205 86.2937 286.848 86.0974 286.543 85.8689C286.244 85.6404 286.01 85.3708 285.84 85.0603C285.67 84.7439 285.585 84.3835 285.585 83.9792C285.585 83.5808 285.67 83.2058 285.84 82.8542C286.016 82.5027 286.265 82.1921 286.587 81.9226C286.915 81.6472 287.313 81.4333 287.782 81.281C288.257 81.1228 288.79 81.0437 289.382 81.0437C290.208 81.0437 290.917 81.1755 291.509 81.4392C292.106 81.7029 292.563 82.0662 292.88 82.5291C293.202 82.9861 293.363 83.5076 293.363 84.0935H290.832C290.832 83.8474 290.779 83.6277 290.674 83.4343C290.574 83.2351 290.416 83.0798 290.199 82.9685C289.988 82.8513 289.713 82.7927 289.373 82.7927C289.092 82.7927 288.849 82.8425 288.644 82.9421C288.438 83.0359 288.28 83.1648 288.169 83.3289C288.063 83.4871 288.011 83.6628 288.011 83.8562C288.011 84.0027 288.04 84.1345 288.099 84.2517C288.163 84.363 288.266 84.4656 288.406 84.5593C288.547 84.6531 288.729 84.741 288.951 84.823C289.18 84.8992 289.461 84.9695 289.795 85.0339C290.48 85.1746 291.093 85.3591 291.632 85.5876C292.171 85.8103 292.599 86.115 292.915 86.5017C293.231 86.8826 293.39 87.3835 293.39 88.0046C293.39 88.4265 293.296 88.8132 293.108 89.1648C292.921 89.5164 292.651 89.824 292.3 90.0876C291.948 90.3455 291.526 90.5476 291.034 90.6941C290.548 90.8347 290 90.905 289.391 90.905C288.506 90.905 287.756 90.7468 287.141 90.4304C286.531 90.114 286.068 89.7126 285.752 89.2263C285.441 88.7341 285.286 88.2302 285.286 87.7146H287.686C287.697 88.0603 287.785 88.3386 287.949 88.5496C288.119 88.7605 288.333 88.9128 288.591 89.0066C288.854 89.1003 289.139 89.1472 289.443 89.1472C289.771 89.1472 290.044 89.1033 290.261 89.0154C290.478 88.9216 290.642 88.7986 290.753 88.6462C290.87 88.488 290.929 88.3064 290.929 88.1013ZM304.648 88.5847V84.3484C304.648 84.0437 304.599 83.783 304.499 83.5662C304.399 83.3435 304.244 83.1707 304.033 83.0476C303.828 82.9246 303.562 82.863 303.233 82.863C302.952 82.863 302.709 82.9128 302.504 83.0125C302.299 83.1062 302.141 83.2439 302.029 83.4255C301.918 83.6013 301.862 83.8093 301.862 84.0496H299.331C299.331 83.6453 299.425 83.2615 299.612 82.8982C299.8 82.5349 300.072 82.2156 300.43 81.9402C300.787 81.6589 301.212 81.4392 301.704 81.281C302.202 81.1228 302.759 81.0437 303.374 81.0437C304.112 81.0437 304.769 81.1667 305.343 81.4128C305.917 81.6589 306.368 82.0281 306.696 82.5203C307.03 83.0125 307.197 83.6277 307.197 84.366V88.4353C307.197 88.9568 307.229 89.3845 307.294 89.7185C307.358 90.0466 307.452 90.3337 307.575 90.5798V90.7292H305.018C304.895 90.4714 304.801 90.1492 304.736 89.7625C304.678 89.3699 304.648 88.9773 304.648 88.5847ZM304.982 84.9373L305 86.3699H303.585C303.251 86.3699 302.961 86.408 302.715 86.4841C302.469 86.5603 302.267 86.6687 302.108 86.8093C301.95 86.9441 301.833 87.1023 301.757 87.2839C301.687 87.4656 301.651 87.6648 301.651 87.8816C301.651 88.0984 301.701 88.2947 301.801 88.4705C301.9 88.6404 302.044 88.7751 302.231 88.8748C302.419 88.9685 302.639 89.0154 302.891 89.0154C303.271 89.0154 303.603 88.9392 303.884 88.7869C304.165 88.6345 304.382 88.447 304.534 88.2244C304.692 88.0017 304.774 87.7908 304.78 87.5916L305.448 88.6638C305.354 88.9041 305.226 89.1531 305.062 89.4109C304.903 89.6687 304.701 89.9119 304.455 90.1404C304.209 90.363 303.913 90.5476 303.567 90.6941C303.222 90.8347 302.812 90.905 302.337 90.905C301.733 90.905 301.186 90.7849 300.693 90.5447C300.207 90.2986 299.82 89.9617 299.533 89.5339C299.252 89.1003 299.111 88.6082 299.111 88.0574C299.111 87.5593 299.205 87.1169 299.393 86.7302C299.58 86.3435 299.855 86.0183 300.219 85.7546C300.588 85.4851 301.048 85.283 301.599 85.1482C302.149 85.0076 302.788 84.9373 303.515 84.9373H304.982ZM314.29 88.1013C314.29 87.9197 314.237 87.7556 314.132 87.6091C314.026 87.4626 313.83 87.3279 313.543 87.2048C313.262 87.0759 312.854 86.9587 312.321 86.8533C311.841 86.7478 311.393 86.616 310.977 86.4578C310.566 86.2937 310.209 86.0974 309.904 85.8689C309.605 85.6404 309.371 85.3708 309.201 85.0603C309.031 84.7439 308.946 84.3835 308.946 83.9792C308.946 83.5808 309.031 83.2058 309.201 82.8542C309.377 82.5027 309.626 82.1921 309.948 81.9226C310.276 81.6472 310.675 81.4333 311.144 81.281C311.618 81.1228 312.151 81.0437 312.743 81.0437C313.569 81.0437 314.278 81.1755 314.87 81.4392C315.468 81.7029 315.925 82.0662 316.241 82.5291C316.563 82.9861 316.725 83.5076 316.725 84.0935H314.193C314.193 83.8474 314.141 83.6277 314.035 83.4343C313.936 83.2351 313.777 83.0798 313.561 82.9685C313.35 82.8513 313.074 82.7927 312.734 82.7927C312.453 82.7927 312.21 82.8425 312.005 82.9421C311.8 83.0359 311.642 83.1648 311.53 83.3289C311.425 83.4871 311.372 83.6628 311.372 83.8562C311.372 84.0027 311.401 84.1345 311.46 84.2517C311.524 84.363 311.627 84.4656 311.768 84.5593C311.908 84.6531 312.09 84.741 312.312 84.823C312.541 84.8992 312.822 84.9695 313.156 85.0339C313.842 85.1746 314.454 85.3591 314.993 85.5876C315.532 85.8103 315.96 86.115 316.276 86.5017C316.593 86.8826 316.751 87.3835 316.751 88.0046C316.751 88.4265 316.657 88.8132 316.47 89.1648C316.282 89.5164 316.013 89.824 315.661 90.0876C315.31 90.3455 314.888 90.5476 314.396 90.6941C313.909 90.8347 313.361 90.905 312.752 90.905C311.867 90.905 311.117 90.7468 310.502 90.4304C309.893 90.114 309.43 89.7126 309.113 89.2263C308.803 88.7341 308.647 88.2302 308.647 87.7146H311.047C311.059 88.0603 311.146 88.3386 311.311 88.5496C311.48 88.7605 311.694 88.9128 311.952 89.0066C312.216 89.1003 312.5 89.1472 312.805 89.1472C313.133 89.1472 313.405 89.1033 313.622 89.0154C313.839 88.9216 314.003 88.7986 314.114 88.6462C314.231 88.488 314.29 88.3064 314.29 88.1013ZM325.408 83.1882V90.7292H322.868V81.2195H325.25L325.408 83.1882ZM325.057 85.6404H324.354C324.354 84.9783 324.433 84.3689 324.591 83.8123C324.755 83.2498 324.992 82.7634 325.303 82.3533C325.619 81.9373 326.009 81.615 326.472 81.3865C326.935 81.158 327.471 81.0437 328.08 81.0437C328.502 81.0437 328.889 81.1082 329.24 81.2371C329.592 81.3601 329.894 81.5564 330.146 81.8259C330.403 82.0896 330.603 82.4353 330.743 82.863C330.884 83.2849 330.954 83.7917 330.954 84.3835V90.7292H328.423V84.6648C328.423 84.2312 328.364 83.8972 328.247 83.6628C328.13 83.4285 327.963 83.2644 327.746 83.1707C327.535 83.0769 327.28 83.03 326.981 83.03C326.653 83.03 326.366 83.0974 326.12 83.2322C325.88 83.3669 325.681 83.5544 325.522 83.7947C325.364 84.0291 325.247 84.3044 325.171 84.6208C325.095 84.9373 325.057 85.2771 325.057 85.6404ZM330.717 85.3503L329.812 85.4646C329.812 84.8435 329.888 84.2664 330.04 83.7332C330.198 83.2 330.43 82.7312 330.734 82.3269C331.045 81.9226 331.429 81.6091 331.886 81.3865C332.343 81.158 332.87 81.0437 333.468 81.0437C333.925 81.0437 334.341 81.1111 334.716 81.2458C335.091 81.3748 335.41 81.5828 335.674 81.8699C335.943 82.1511 336.148 82.5203 336.289 82.9773C336.436 83.4343 336.509 83.9939 336.509 84.656V90.7292H333.969V84.656C333.969 84.2166 333.91 83.8826 333.793 83.6541C333.682 83.4197 333.518 83.2585 333.301 83.1707C333.09 83.0769 332.838 83.03 332.545 83.03C332.24 83.03 331.974 83.0916 331.745 83.2146C331.517 83.3318 331.326 83.4958 331.174 83.7068C331.021 83.9177 330.907 84.1638 330.831 84.4451C330.755 84.7205 330.717 85.0222 330.717 85.3503ZM343.602 88.5847V84.3484C343.602 84.0437 343.552 83.783 343.452 83.5662C343.353 83.3435 343.197 83.1707 342.986 83.0476C342.781 82.9246 342.515 82.863 342.187 82.863C341.905 82.863 341.662 82.9128 341.457 83.0125C341.252 83.1062 341.094 83.2439 340.982 83.4255C340.871 83.6013 340.815 83.8093 340.815 84.0496H338.284C338.284 83.6453 338.378 83.2615 338.565 82.8982C338.753 82.5349 339.025 82.2156 339.383 81.9402C339.74 81.6589 340.165 81.4392 340.657 81.281C341.155 81.1228 341.712 81.0437 342.327 81.0437C343.065 81.0437 343.722 81.1667 344.296 81.4128C344.87 81.6589 345.321 82.0281 345.649 82.5203C345.983 83.0125 346.15 83.6277 346.15 84.366V88.4353C346.15 88.9568 346.183 89.3845 346.247 89.7185C346.312 90.0466 346.405 90.3337 346.528 90.5798V90.7292H343.971C343.848 90.4714 343.754 90.1492 343.689 89.7625C343.631 89.3699 343.602 88.9773 343.602 88.5847ZM343.936 84.9373L343.953 86.3699H342.538C342.204 86.3699 341.914 86.408 341.668 86.4841C341.422 86.5603 341.22 86.6687 341.062 86.8093C340.903 86.9441 340.786 87.1023 340.71 87.2839C340.64 87.4656 340.604 87.6648 340.604 87.8816C340.604 88.0984 340.654 88.2947 340.754 88.4705C340.854 88.6404 340.997 88.7751 341.185 88.8748C341.372 88.9685 341.592 89.0154 341.844 89.0154C342.225 89.0154 342.556 88.9392 342.837 88.7869C343.118 88.6345 343.335 88.447 343.487 88.2244C343.646 88.0017 343.728 87.7908 343.733 87.5916L344.401 88.6638C344.308 88.9041 344.179 89.1531 344.015 89.4109C343.856 89.6687 343.654 89.9119 343.408 90.1404C343.162 90.363 342.866 90.5476 342.521 90.6941C342.175 90.8347 341.765 90.905 341.29 90.905C340.687 90.905 340.139 90.7849 339.646 90.5447C339.16 90.2986 338.773 89.9617 338.486 89.5339C338.205 89.1003 338.064 88.6082 338.064 88.0574C338.064 87.5593 338.158 87.1169 338.346 86.7302C338.533 86.3435 338.809 86.0183 339.172 85.7546C339.541 85.4851 340.001 85.283 340.552 85.1482C341.103 85.0076 341.741 84.9373 342.468 84.9373H343.936ZM352.76 81.2195V83.0125H347.223V81.2195H352.76ZM348.594 78.8728H351.125V87.864C351.125 88.1394 351.16 88.3503 351.23 88.4968C351.307 88.6433 351.418 88.7458 351.564 88.8044C351.711 88.8572 351.896 88.8835 352.118 88.8835C352.276 88.8835 352.417 88.8777 352.54 88.866C352.669 88.8484 352.777 88.8308 352.865 88.8132L352.874 90.6765C352.657 90.7468 352.423 90.8025 352.171 90.8435C351.919 90.8845 351.641 90.905 351.336 90.905C350.779 90.905 350.293 90.8142 349.877 90.6326C349.467 90.4451 349.15 90.1462 348.928 89.7361C348.705 89.3259 348.594 88.7869 348.594 88.1189V78.8728ZM358.578 90.905C357.84 90.905 357.178 90.7878 356.592 90.5535C356.006 90.3132 355.508 89.9822 355.098 89.5603C354.693 89.1384 354.383 88.6492 354.166 88.0925C353.949 87.53 353.841 86.9324 353.841 86.2996V85.948C353.841 85.2273 353.943 84.5681 354.148 83.9705C354.354 83.3728 354.646 82.8542 355.027 82.4148C355.414 81.9753 355.883 81.6384 356.434 81.4041C356.984 81.1638 357.605 81.0437 358.297 81.0437C358.971 81.0437 359.568 81.155 360.09 81.3777C360.611 81.6003 361.048 81.9167 361.399 82.3269C361.757 82.7371 362.026 83.2292 362.208 83.8035C362.39 84.3718 362.48 85.0046 362.48 85.7019V86.7566H354.922V85.0691H359.993V84.8757C359.993 84.5242 359.929 84.2107 359.8 83.9353C359.677 83.6541 359.489 83.4314 359.237 83.2673C358.985 83.1033 358.663 83.0212 358.271 83.0212C357.937 83.0212 357.649 83.0945 357.409 83.241C357.169 83.3875 356.973 83.5925 356.82 83.8562C356.674 84.1199 356.562 84.4304 356.486 84.7878C356.416 85.1394 356.381 85.5261 356.381 85.948V86.2996C356.381 86.6804 356.434 87.032 356.539 87.3542C356.65 87.6765 356.806 87.9548 357.005 88.1892C357.21 88.4236 357.456 88.6052 357.743 88.7341C358.036 88.863 358.367 88.9275 358.736 88.9275C359.193 88.9275 359.618 88.8396 360.011 88.6638C360.409 88.4822 360.752 88.2097 361.039 87.8464L362.27 89.1824C362.07 89.4695 361.798 89.7449 361.452 90.0085C361.112 90.2722 360.702 90.489 360.222 90.6589C359.741 90.823 359.193 90.905 358.578 90.905ZM356.794 79.9275L358.517 77.2205H361.268L358.851 79.9275H356.794ZM366.453 83.2937V90.7292H363.922V81.2195H366.304L366.453 83.2937ZM369.318 81.158L369.274 83.5046C369.151 83.4871 369.002 83.4724 368.826 83.4607C368.656 83.4431 368.501 83.4343 368.36 83.4343C368.003 83.4343 367.692 83.4812 367.429 83.575C367.171 83.6628 366.954 83.7947 366.778 83.9705C366.608 84.1462 366.479 84.3601 366.392 84.6121C366.31 84.864 366.263 85.1511 366.251 85.4734L365.741 85.3152C365.741 84.7 365.803 84.1345 365.926 83.6189C366.049 83.0974 366.228 82.6433 366.462 82.2566C366.702 81.8699 366.995 81.571 367.341 81.3601C367.687 81.1492 368.082 81.0437 368.527 81.0437C368.668 81.0437 368.812 81.0554 368.958 81.0789C369.104 81.0964 369.225 81.1228 369.318 81.158ZM373.186 81.2195V90.7292H370.646V81.2195H373.186ZM370.487 78.741C370.487 78.3718 370.616 78.0671 370.874 77.8269C371.132 77.5867 371.478 77.4666 371.911 77.4666C372.339 77.4666 372.682 77.5867 372.939 77.8269C373.203 78.0671 373.335 78.3718 373.335 78.741C373.335 79.1101 373.203 79.4148 372.939 79.655C372.682 79.8953 372.339 80.0154 371.911 80.0154C371.478 80.0154 371.132 79.8953 370.874 79.655C370.616 79.4148 370.487 79.1101 370.487 78.741ZM380.41 88.5847V84.3484C380.41 84.0437 380.36 83.783 380.261 83.5662C380.161 83.3435 380.006 83.1707 379.795 83.0476C379.59 82.9246 379.323 82.863 378.995 82.863C378.714 82.863 378.471 82.9128 378.266 83.0125C378.061 83.1062 377.902 83.2439 377.791 83.4255C377.68 83.6013 377.624 83.8093 377.624 84.0496H375.093C375.093 83.6453 375.187 83.2615 375.374 82.8982C375.562 82.5349 375.834 82.2156 376.191 81.9402C376.549 81.6589 376.974 81.4392 377.466 81.281C377.964 81.1228 378.521 81.0437 379.136 81.0437C379.874 81.0437 380.53 81.1667 381.104 81.4128C381.679 81.6589 382.13 82.0281 382.458 82.5203C382.792 83.0125 382.959 83.6277 382.959 84.366V88.4353C382.959 88.9568 382.991 89.3845 383.056 89.7185C383.12 90.0466 383.214 90.3337 383.337 90.5798V90.7292H380.779C380.656 90.4714 380.562 90.1492 380.498 89.7625C380.439 89.3699 380.41 88.9773 380.41 88.5847ZM380.744 84.9373L380.762 86.3699H379.347C379.013 86.3699 378.723 86.408 378.477 86.4841C378.23 86.5603 378.028 86.6687 377.87 86.8093C377.712 86.9441 377.595 87.1023 377.519 87.2839C377.448 87.4656 377.413 87.6648 377.413 87.8816C377.413 88.0984 377.463 88.2947 377.562 88.4705C377.662 88.6404 377.806 88.7751 377.993 88.8748C378.181 88.9685 378.4 89.0154 378.652 89.0154C379.033 89.0154 379.364 88.9392 379.646 88.7869C379.927 88.6345 380.144 88.447 380.296 88.2244C380.454 88.0017 380.536 87.7908 380.542 87.5916L381.21 88.6638C381.116 88.9041 380.987 89.1531 380.823 89.4109C380.665 89.6687 380.463 89.9119 380.217 90.1404C379.971 90.363 379.675 90.5476 379.329 90.6941C378.983 90.8347 378.573 90.905 378.099 90.905C377.495 90.905 376.947 90.7849 376.455 90.5447C375.969 90.2986 375.582 89.9617 375.295 89.5339C375.014 89.1003 374.873 88.6082 374.873 88.0574C374.873 87.5593 374.967 87.1169 375.154 86.7302C375.342 86.3435 375.617 86.0183 375.98 85.7546C376.35 85.4851 376.81 85.283 377.36 85.1482C377.911 85.0076 378.55 84.9373 379.276 84.9373H380.744ZM390.052 88.1013C390.052 87.9197 389.999 87.7556 389.894 87.6091C389.788 87.4626 389.592 87.3279 389.305 87.2048C389.023 87.0759 388.616 86.9587 388.083 86.8533C387.603 86.7478 387.154 86.616 386.738 86.4578C386.328 86.2937 385.971 86.0974 385.666 85.8689C385.367 85.6404 385.133 85.3708 384.963 85.0603C384.793 84.7439 384.708 84.3835 384.708 83.9792C384.708 83.5808 384.793 83.2058 384.963 82.8542C385.139 82.5027 385.388 82.1921 385.71 81.9226C386.038 81.6472 386.437 81.4333 386.905 81.281C387.38 81.1228 387.913 81.0437 388.505 81.0437C389.331 81.0437 390.04 81.1755 390.632 81.4392C391.229 81.7029 391.687 82.0662 392.003 82.5291C392.325 82.9861 392.486 83.5076 392.486 84.0935H389.955C389.955 83.8474 389.902 83.6277 389.797 83.4343C389.697 83.2351 389.539 83.0798 389.322 82.9685C389.111 82.8513 388.836 82.7927 388.496 82.7927C388.215 82.7927 387.972 82.8425 387.767 82.9421C387.562 83.0359 387.403 83.1648 387.292 83.3289C387.187 83.4871 387.134 83.6628 387.134 83.8562C387.134 84.0027 387.163 84.1345 387.222 84.2517C387.286 84.363 387.389 84.4656 387.529 84.5593C387.67 84.6531 387.852 84.741 388.074 84.823C388.303 84.8992 388.584 84.9695 388.918 85.0339C389.604 85.1746 390.216 85.3591 390.755 85.5876C391.294 85.8103 391.722 86.115 392.038 86.5017C392.354 86.8826 392.513 87.3835 392.513 88.0046C392.513 88.4265 392.419 88.8132 392.231 89.1648C392.044 89.5164 391.774 89.824 391.423 90.0876C391.071 90.3455 390.649 90.5476 390.157 90.6941C389.671 90.8347 389.123 90.905 388.514 90.905C387.629 90.905 386.879 90.7468 386.264 90.4304C385.654 90.114 385.191 89.7126 384.875 89.2263C384.564 88.7341 384.409 88.2302 384.409 87.7146H386.809C386.82 88.0603 386.908 88.3386 387.072 88.5496C387.242 88.7605 387.456 88.9128 387.714 89.0066C387.978 89.1003 388.262 89.1472 388.566 89.1472C388.895 89.1472 389.167 89.1033 389.384 89.0154C389.601 88.9216 389.765 88.7986 389.876 88.6462C389.993 88.488 390.052 88.3064 390.052 88.1013Z" fill="white"/>
<path d="M417.187 89.1876L416.292 88.3126L419.792 84.8126H408.833V83.5626H419.792L416.271 80.0417L417.167 79.1667L422.187 84.1876L417.187 89.1876Z" fill="white"/>
</g>
<defs>
<filter id="filter0_d_568_495" x="181" y="54.2292" width="280" height="82" filterUnits="userSpaceOnUse" color-interpolation-filters="sRGB">
<feFlood flood-opacity="0" result="BackgroundImageFix"/>
<feColorMatrix in="SourceAlpha" type="matrix" values="0 0 0 0 0 0 0 0 0 0 0 0 0 0 0 0 0 0 127 0" result="hardAlpha"/>
<feOffset dy="12"/>
<feGaussianBlur stdDeviation="5"/>
<feComposite in2="hardAlpha" operator="out"/>
<feColorMatrix type="matrix" values="0 0 0 0 0 0 0 0 0 0.0705882 0 0 0 0 0.14902 0 0 0 0.03 0"/>
<feBlend mode="normal" in2="BackgroundImageFix" result="effect1_dropShadow_568_495"/>
<feBlend mode="normal" in="SourceGraphic" in2="effect1_dropShadow_568_495" result="shape"/>
</filter>
</defs>
</svg>
