<svg width="200" height="129" viewBox="0 0 200 129" fill="none" xmlns="http://www.w3.org/2000/svg">
<path d="M172.935 16.2796C174.571 16.2796 175.898 14.9528 175.898 13.3162C175.898 11.6794 174.571 10.3528 172.935 10.3528C171.298 10.3528 169.971 11.6794 169.971 13.3162C169.971 14.9528 171.298 16.2796 172.935 16.2796Z" fill="#E5E7EB"/>
<path d="M181.121 16.7946C182.454 16.7946 183.534 15.7139 183.534 14.3812C183.534 13.0482 182.454 11.9678 181.121 11.9678C179.788 11.9678 178.708 13.0482 178.708 14.3812C178.708 15.7139 179.788 16.7946 181.121 16.7946Z" fill="#E5E7EB"/>
<path d="M135.535 62.1695C135.535 62.1695 135.112 60.9573 136.355 60.7285C137.598 60.4997 139.149 59.2347 139.847 62.1695C140.544 65.1043 144.306 79.3669 143.538 81.5097C142.77 83.6525 139.191 87.2539 139.138 86.4773C139.085 85.7007 138.604 76.6191 137.633 72.9803C136.663 69.3415 135.535 62.1695 135.535 62.1695Z" fill="#E5E7EB"/>
<path d="M130.712 48.3093C130.846 48.4127 131.359 50.8503 133.238 51.1011C135.117 51.3519 136.61 50.6611 135.352 48.2059C134.094 45.7507 133.203 42.2021 132.529 43.9885C132.324 44.5176 132.006 44.9956 131.599 45.3903C131.191 45.785 130.702 46.0864 130.167 46.2743L130.712 48.3093Z" fill="#E5E7EB"/>
<path d="M127.199 34.3594L127.148 34.41C126.928 34.663 126.745 34.9732 126.462 35.1734C125.692 35.7168 124.101 35.8202 123.344 35.5232C123.313 35.4902 123.28 35.4572 123.254 35.4264C122.931 35.0634 122.594 34.7026 122.251 34.3264C113.231 24.6134 96.106 12.047 71.6794 11.2264V9.60938C71.7762 9.60938 71.8796 9.60938 71.9786 9.60938C90.9316 9.60938 111.781 19.802 125.659 32.8458C126.059 33.2198 126.453 33.5966 126.842 33.9766C126.954 34.1064 127.082 34.2296 127.199 34.3594Z" fill="#E5E7EB"/>
<path d="M64.074 127.692C63.5042 127.338 62.9344 126.962 62.38 126.592" stroke="black" stroke-width="1.30264" stroke-miterlimit="10"/>
<path d="M196.439 112.285L175.099 127.303C175.072 127.289 175.048 127.27 175.022 127.256C173.521 126.339 172.842 124.836 171.594 123.681C170.404 122.581 168.84 121.754 167.183 121.754C165.655 121.739 164.175 122.287 163.025 123.294C161.991 124.238 161.331 125.518 160.308 126.475C159.147 127.586 157.603 128.209 155.996 128.216C154.91 128.216 153.841 127.942 152.889 127.419C151.937 126.895 151.132 126.139 150.551 125.221L150.265 124.744C149.683 123.827 148.879 123.071 147.927 122.548C146.975 122.024 145.907 121.75 144.82 121.75C143.734 121.75 142.665 122.024 141.713 122.548C140.761 123.071 139.957 123.827 139.375 124.744L139.091 125.221C138.511 126.138 137.71 126.893 136.76 127.417C135.811 127.941 134.744 128.218 133.66 128.22C132.054 128.213 130.512 127.59 129.352 126.48C128.325 125.523 127.671 124.242 126.628 123.299C125.479 122.291 123.999 121.743 122.47 121.759C120.823 121.759 119.256 122.579 118.07 123.686C116.823 124.843 116.145 126.343 114.645 127.261C113.642 127.89 112.482 128.224 111.298 128.224C110.114 128.224 108.953 127.89 107.95 127.261C106.45 126.343 105.77 124.841 104.523 123.686C103.333 122.586 101.768 121.759 100.123 121.759C98.5947 121.744 97.1147 122.292 95.9648 123.299C94.9308 124.242 94.2708 125.523 93.25 126.48C92.0877 127.591 90.5435 128.213 88.9358 128.22C87.8494 128.221 86.7802 127.947 85.8283 127.423C84.8761 126.9 84.072 126.144 83.4908 125.226L83.207 124.748C82.6249 123.831 81.8203 123.076 80.8684 122.552C79.9162 122.029 78.8475 121.755 77.7609 121.755C76.6745 121.755 75.6055 122.029 74.6536 122.552C73.7014 123.076 72.8969 123.831 72.3148 124.748L72.031 125.226C70.6626 127.529 67.7278 128.596 65.1582 128.011C62.0122 127.289 61.196 124.159 58.6528 122.669C57.9422 122.256 57.1304 122.049 56.378 121.717C54.0196 120.689 52.4532 118.516 50.5898 116.835L56.0502 121.765C55.5332 121.299 55.2076 119.785 54.8512 119.125C54.3155 118.146 53.6979 117.213 53.0054 116.338C51.6172 114.578 50.1322 112.937 48.7418 111.17C45.5826 107.157 42.3794 103.18 39.2246 99.1624C37.0928 96.4476 34.983 93.7152 32.9238 90.9432C31.441 88.9434 28.0838 85.4058 30.2838 82.8164C30.7493 82.315 31.3827 82.0019 32.0636 81.9364C35.038 81.536 38.5184 82.5106 41.4752 82.8714C48.337 83.714 55.1922 84.6006 62.0518 85.4542C71.2302 86.5894 80.4196 87.7202 89.5826 89.06L91.1358 89.2954L91.6792 89.379C91.952 89.4252 92.1588 89.4648 92.293 89.4824L92.4624 89.5088C92.4734 89.5103 92.4844 89.5103 92.4954 89.5088L195.04 106.187C195.702 106.295 196.317 106.599 196.807 107.058C197.296 107.517 197.638 108.112 197.788 108.766C197.938 109.42 197.89 110.105 197.649 110.731C197.409 111.358 196.988 111.899 196.439 112.285Z" fill="#2E304A"/>
<path d="M175.112 127.305L196.439 112.288C196.989 111.902 197.412 111.361 197.652 110.734C197.893 110.107 197.942 109.422 197.792 108.768C197.641 108.113 197.299 107.518 196.809 107.059C196.319 106.599 195.703 106.297 195.04 106.189L28.6452 79.1292C25.6378 78.6452 23.5676 82.0662 25.4046 84.5038L45 110.547C48.2663 114.659 51.9441 118.425 55.9758 121.789" stroke="black" stroke-width="1.30264" stroke-miterlimit="10"/>
<path d="M184.85 121.756C184.855 122.905 184.553 124.033 183.974 125.025C183.396 126.017 182.563 126.836 181.562 127.397C180.56 127.959 179.426 128.242 178.278 128.217C177.13 128.192 176.01 127.86 175.033 127.256C173.533 126.337 172.855 124.836 171.606 123.677C170.416 122.577 168.856 121.752 167.206 121.752C165.678 121.737 164.198 122.286 163.048 123.292C162.012 124.238 161.352 125.516 160.329 126.473C159.167 127.583 157.624 128.205 156.017 128.211C154.93 128.211 153.862 127.937 152.91 127.413C151.958 126.89 151.153 126.134 150.572 125.217L150.288 124.74C149.706 123.822 148.902 123.067 147.95 122.543C146.998 122.02 145.929 121.746 144.843 121.746C143.756 121.746 142.688 122.02 141.736 122.543C140.784 123.067 139.98 123.822 139.398 124.74L139.112 125.217C138.531 126.138 137.727 126.896 136.773 127.422C135.82 127.948 134.749 128.223 133.66 128.222C132.054 128.215 130.512 127.593 129.35 126.484C128.325 125.527 127.667 124.249 126.631 123.303C125.481 122.297 124.001 121.748 122.473 121.763C120.819 121.763 119.257 122.581 118.073 123.688C116.824 124.847 116.146 126.348 114.646 127.267C113.641 127.896 112.481 128.229 111.296 128.229C110.112 128.229 108.951 127.896 107.947 127.267C106.446 126.348 105.769 124.847 104.521 123.688C103.331 122.588 101.769 121.763 100.121 121.763C98.5931 121.748 97.1132 122.297 95.9632 123.303C94.927 124.249 94.2692 125.527 93.244 126.484C92.0827 127.593 90.5402 128.215 88.9342 128.222C87.8477 128.223 86.7787 127.949 85.8267 127.425C84.8746 126.902 84.0705 126.146 83.4892 125.228L83.2032 124.751C82.6213 123.833 81.817 123.078 80.8653 122.554C79.9134 122.031 78.8446 121.757 77.7582 121.757C76.6719 121.757 75.6031 122.031 74.6514 122.554C73.6995 123.078 72.8951 123.833 72.3132 124.751L72.0294 125.228C71.4478 126.145 70.6434 126.901 69.6915 127.424C68.7396 127.948 67.6708 128.222 66.5844 128.222C64.9778 128.216 63.4345 127.594 62.2724 126.484C61.2494 125.527 60.5894 124.249 59.5532 123.303C58.4033 122.297 56.9233 121.748 55.3952 121.763C53.7408 121.763 52.181 122.581 50.9952 123.688C49.7456 124.847 49.068 126.348 47.5676 127.267C46.591 127.871 45.4708 128.203 44.3228 128.228C43.1749 128.253 42.0412 127.97 41.0396 127.408C40.0379 126.847 39.2048 126.028 38.6266 125.036C38.0482 124.044 37.7462 122.916 37.7512 121.767" stroke="black" stroke-width="1.30264" stroke-miterlimit="10"/>
<path d="M139.517 60.8494C141.204 67.3944 142.401 74.1066 143.738 80.6494" stroke="black" stroke-width="1.30264" stroke-linecap="round" stroke-linejoin="round"/>
<path d="M1 128.22V80.2731C1 41.2517 32.636 9.61572 71.6574 9.61572C90.6126 9.61572 111.462 19.8083 125.337 32.8521C125.738 33.2261 126.132 33.603 126.521 33.9829C126.642 34.1061 126.772 34.2293 126.888 34.3591" stroke="black" stroke-width="1.30264" stroke-linecap="round" stroke-linejoin="round"/>
<path d="M132.247 41.7688C133.396 43.8592 134.432 46.0095 135.351 48.2102C135.415 48.373 135.488 48.527 135.552 48.6898C135.772 49.22 135.992 49.7504 136.185 50.2872" stroke="black" stroke-width="1.30264" stroke-linecap="round" stroke-linejoin="round"/>
<path d="M169.137 28.9363C169.137 28.9363 166.341 34.1283 173.022 34.5595C179.704 34.9907 184.062 29.6755 184.062 29.6755" stroke="black" stroke-width="1.30264" stroke-linecap="round" stroke-linejoin="round"/>
<path d="M156.512 72.7293C157.515 73.1561 158.536 73.5763 159.576 73.9701C157.056 73.349 154.422 73.3604 151.907 74.0031C151.48 74.1197 147.978 75.5959 147.507 75.5255C147.575 73.9855 148.191 68.5141 148.607 67.6055C150.409 68.4679 155.115 72.1331 156.512 72.7293Z" fill="#ED145B"/>
<path d="M197.564 56.0094L195.5 61.6304C195.5 61.6304 190.405 49.9704 179 54.5904C179 54.5904 177.205 61.4918 167.747 59.6284C157.997 57.71 152.395 55.3054 152.633 53.9942C152.89 52.584 154.191 49.9374 154.492 50.1376C155.066 48.5395 155.797 47.0024 156.674 45.5484C157.059 44.9126 157.084 45.5484 157.103 45.1084C157.407 38.5546 151.546 37.1884 151.546 37.1884C156.501 32.5134 162.716 29.6732 169.06 28.6084C169.06 28.6084 166.984 32.9754 170.475 34.0094C173.966 35.0434 177.926 35.2568 184.962 29.451C184.966 29.4642 204.335 33.389 197.564 56.0094Z" fill="#ED145B"/>
<path d="M192.895 66.2659C192.358 69.0357 186.9 95.5941 173.676 101.092C176.127 89.3659 167.241 79.7959 167.241 79.7959C165.661 77.2153 163.69 75.6445 161.686 74.7359C170.266 77.6267 179.675 78.5529 187.281 72.4215C189.445 70.6575 191.337 68.5831 192.895 66.2659Z" fill="#ED145B"/>
<path d="M169.245 82.8296C167.111 79.3096 164.453 75.5014 159.596 74.0978C154.377 72.5842 148.415 73.9438 145.685 77.8378C143.461 81.019 141.397 84.286 139.199 87.4936C138.559 88.4374 137.899 89.3812 137.219 90.3118C136.366 91.502 135.506 92.6856 134.652 93.8692C134.115 94.6128 133.585 95.3564 133.048 96.0934" stroke="black" stroke-width="1.30264" stroke-miterlimit="10"/>
<path d="M147.166 76.2252C145.639 75.3696 144.05 74.6284 142.414 74.0076" stroke="black" stroke-width="1.30264" stroke-miterlimit="10"/>
<path d="M97.8 90.3756C101.214 87.8082 104.635 85.2408 107.993 82.5898C113.695 78.0952 119.263 73.2112 126.759 72.1068C130.373 71.5928 134.052 71.7464 137.611 72.56" stroke="black" stroke-width="1.30264" stroke-miterlimit="10"/>
<path d="M192.941 66.0039C192.941 66.0039 186.475 101.628 169.06 102.071" stroke="black" stroke-width="1.30264" stroke-miterlimit="10"/>
<path d="M162.656 96.4939L159.981 100.489" stroke="black" stroke-width="1.30264" stroke-miterlimit="10"/>
<path d="M121.837 94.2893C121.758 94.2761 123.102 93.4995 124.735 92.5777C126.307 91.6889 128.125 91.3356 129.916 91.571C131.707 91.8064 133.372 92.6176 134.661 93.8824" stroke="black" stroke-width="1.30264" stroke-miterlimit="10"/>
<path d="M129.92 46.3667C130.327 47.2863 131.088 48.9121 131.504 49.9285" stroke="black" stroke-width="1.30264" stroke-linecap="round" stroke-linejoin="round"/>
<path d="M139.2 87.5045C138.702 78.1523 136.96 66.9719 135.2 60.8999" stroke="black" stroke-width="1.30264" stroke-linecap="round" stroke-linejoin="round"/>
<path d="M152.296 54.003C153.722 50.7536 155.431 47.6367 157.405 44.6882" stroke="black" stroke-width="1.30264" stroke-linecap="round" stroke-linejoin="round"/>
<path d="M148.444 67.2295C147.811 70.5295 147.311 73.4423 147.008 75.7853" stroke="black" stroke-width="1.30264" stroke-linecap="round" stroke-linejoin="round"/>
<path d="M171.819 28.2673C170.895 28.3509 169.974 28.4691 169.058 28.6215C162.713 29.6885 156.498 32.5287 151.543 37.2015C150.324 38.3491 149.199 39.5931 148.18 40.9217C146.996 42.4485 145.896 45.1589 143.769 45.5131C141.401 45.9025 139.481 43.5617 138.163 41.9447C136.053 39.3575 133.926 36.7901 131.928 34.1127C131.022 32.8961 130.168 31.3781 128.564 31.0085C127.271 30.7115 125.81 31.6421 124.802 32.3527" stroke="black" stroke-width="1.30264" stroke-linecap="round" stroke-linejoin="round"/>
<path d="M131.332 42.7082C132.171 42.4244 132.36 43.4232 132.36 43.4232C132.409 43.8329 132.348 44.2482 132.183 44.6262C132.018 45.0042 131.755 45.3309 131.42 45.5726C130.309 46.4526 128.796 46.7628 127.405 46.7144C126.745 46.6924 125.894 46.5538 125.478 45.9928C125.062 45.4318 125.038 44.653 125.161 43.9688" stroke="black" stroke-width="1.30264" stroke-linecap="round" stroke-linejoin="round"/>
<path d="M121.408 33.884C120.978 34.1293 120.603 34.4601 120.305 34.8564C120.008 35.2526 119.796 35.7056 119.681 36.1874C119.573 36.5856 119.615 37.0095 119.799 37.3787C119.983 37.7478 120.297 38.0365 120.68 38.1894C122.636 39.0955 124.856 39.2575 126.923 38.6448C128.023 38.317 128.725 37.6174 129.482 36.8122C129.646 36.6357 129.773 36.4283 129.856 36.2017C129.938 35.9753 129.974 35.7346 129.962 35.4939C129.95 35.2532 129.889 35.0174 129.784 34.8007C129.679 34.5838 129.531 34.3902 129.35 34.2316C129.134 34.0472 128.878 33.9156 128.602 33.8472C128.327 33.7788 128.039 33.7757 127.762 33.8378C127.551 33.8901 127.352 33.9843 127.179 34.115C127.053 34.199 126.938 34.2971 126.835 34.4076C126.638 34.6876 126.408 34.9439 126.151 35.171C125.196 35.8486 122.946 35.842 122.653 35.2304" stroke="black" stroke-width="1.30264" stroke-linecap="round" stroke-linejoin="round"/>
<path d="M129.944 35.7959C130.517 35.9858 131.002 36.3765 131.31 36.8959C132.23 38.6053 130.274 40.2729 128.875 40.8097C127.24 41.4345 125.472 41.4279 123.756 41.2497C122.95 41.1683 121.976 41.1837 121.377 40.5479C121.143 40.3037 120.976 40.0036 120.891 39.6762C120.806 39.3489 120.806 39.0052 120.891 38.6779C120.923 38.563 120.969 38.4528 121.03 38.3501" stroke="black" stroke-width="1.30264" stroke-linecap="round" stroke-linejoin="round"/>
<path d="M131.387 38.5723C131.387 38.5723 132.76 39.1773 132.624 40.6315C132.465 42.3188 130.864 43.1791 129.388 43.5817C128.062 43.9233 126.691 44.0568 125.324 43.9776C124.963 43.9704 124.603 43.9216 124.253 43.8325C123.181 43.5311 122.317 42.3804 122.581 41.2497C122.581 41.2123 122.601 41.1727 122.612 41.1353" stroke="black" stroke-width="1.30264" stroke-linecap="round" stroke-linejoin="round"/>
<path d="M134.69 46.6925C135.807 46.3148 136.994 46.19 138.166 46.3273C139.399 46.4351 140.592 46.8243 141.653 47.4647C142.753 48.1841 143.745 49.1433 144.825 49.9089C147.12 51.5435 149.551 52.8987 152.039 54.2077C157.653 57.1579 166.999 59.7891 169.993 59.6901L170.376 59.6725C172.576 59.5493 174.776 58.9355 176.523 57.5737C177.848 56.5269 178.866 55.142 179.471 53.5653C179.961 52.3463 180.203 51.0419 180.183 49.7285C180.172 49.3127 180.183 48.4613 179.792 48.1885" stroke="black" stroke-width="1.30264" stroke-linecap="round" stroke-linejoin="round"/>
<path d="M135.552 48.6899C136.716 48.6899 136.652 50.1378 135.823 50.6108C135.686 50.6862 135.544 50.7487 135.396 50.7975L135.255 50.8371" stroke="black" stroke-width="1.30264" stroke-linecap="round" stroke-linejoin="round"/>
<path d="M184.04 29.4641C184.764 29.6577 185.488 29.8777 186.212 30.1241L186.458 30.2033C190.059 31.4177 193.784 33.3075 196.017 36.5085C198.279 39.7667 199.062 43.7971 198.877 47.7153C198.45 56.9377 194.569 66.5011 187.274 72.3927C183.013 75.8313 177.667 77.2107 172.25 76.9115C169.573 76.7371 166.922 76.2739 164.344 75.5299C161.578 74.7599 158.795 73.8403 156.221 72.5599C155.403 72.1529 154.6 71.7107 153.821 71.2399C151.201 69.6361 148.838 67.6583 146.561 65.5991C145.492 64.6267 144.396 63.6631 143.36 62.6599C142.48 61.8129 141.565 60.9153 140.383 60.5237C139.922 60.3724 139.437 60.3053 138.951 60.3257C137.444 60.3961 136.014 61.0055 134.49 60.8053C130.149 60.2421 128.624 56.1545 128.028 52.3397C127.868 51.2991 127.808 49.8691 128.895 49.2861C129.088 49.1794 129.291 49.0903 129.5 49.0199C129.852 48.9125 130.231 48.9279 130.573 49.0635C130.915 49.199 131.202 49.4465 131.385 49.7657C131.665 50.2966 132.116 50.7168 132.666 50.9566C133.216 51.1966 133.831 51.2421 134.41 51.0857L135.24 50.8657L135.381 50.8261" stroke="black" stroke-width="1.30264" stroke-linecap="round" stroke-linejoin="round"/>
<path d="M123.034 35.5361L122.937 35.4261C122.614 35.0631 122.277 34.7023 121.934 34.3261C112.914 24.6131 95.787 12.0467 71.3604 11.2261V9.60254" stroke="black" stroke-width="1.30264" stroke-miterlimit="10"/>
<path d="M186.088 10.2208V10.201C185.865 8.86974 185.216 7.64654 184.24 6.71396C182.731 5.32796 180.582 4.90337 178.65 4.86157C177.882 4.84749 177.12 4.99026 176.409 5.28132C175.698 5.57216 175.054 6.00491 174.516 6.55337C173.674 5.53697 174.211 4.20596 174.211 4.20596C174.871 2.70116 175.971 2.13356 177.291 2.13796C180.652 2.14896 185.321 5.93516 186.924 7.34316C187.16 7.54776 187.327 7.70396 187.417 7.78316C188.376 8.69616 187.056 13.7694 186.088 10.2208Z" fill="#2E304A"/>
<path d="M177.284 2.13798C178.502 1.14798 180.696 0.065582 183.591 1.50878C186.851 3.13678 187.067 5.89338 186.917 7.34318L177.284 2.13798Z" fill="#2E304A"/>
<path d="M179.378 24.4592C179.378 24.4592 171.018 26.91 171.786 16.5172C171.975 14.2942 172.328 12.088 172.844 9.91725C172.899 9.69725 172.95 9.47726 173.005 9.24186C173.248 8.23008 173.762 7.30366 174.492 6.56226" stroke="black" stroke-width="1.30264" stroke-linecap="round" stroke-linejoin="round"/>
<path d="M186.064 10.2009V10.2207C186.621 13.0389 185.754 15.9759 185.694 16.1607" stroke="black" stroke-width="1.30264" stroke-linecap="round" stroke-linejoin="round"/>
<path d="M185.694 16.1893C186.574 15.0299 188.438 16.1035 187.817 17.4213C187.17 18.7963 185.177 20.1119 185.177 20.1119L183.934 29.9195" stroke="black" stroke-width="1.30264" stroke-linecap="round" stroke-linejoin="round"/>
<path d="M186.064 10.2009C185.085 6.68094 180.47 8.15054 176.754 7.60934C175.573 7.43774 174.882 7.03075 174.492 6.55335C175.03 6.00511 175.674 5.57214 176.385 5.2813C177.096 4.99024 177.858 4.84746 178.626 4.86154C180.558 4.90334 182.707 5.32794 184.216 6.71394C185.192 7.64652 185.841 8.86972 186.064 10.2009Z" fill="black"/>
<path d="M186.069 10.2208V10.201C185.845 8.86974 185.197 7.64654 184.221 6.71396C182.711 5.32796 180.562 4.90337 178.63 4.86157C177.862 4.84749 177.1 4.99026 176.389 5.28132C175.678 5.57216 175.034 6.00491 174.497 6.55337C173.654 5.53697 174.191 4.20596 174.191 4.20596C174.851 2.70116 175.951 2.13356 177.271 2.13796C180.632 2.14896 185.301 5.93516 186.905 7.34316C187.14 7.54776 187.307 7.70396 187.397 7.78316C188.357 8.69616 187.037 13.7694 186.069 10.2208Z" stroke="black" stroke-width="1.30264" stroke-linecap="round" stroke-linejoin="round"/>
<path d="M177.264 2.13798C178.483 1.14798 180.676 0.065582 183.571 1.50878C186.832 3.13678 187.047 5.89338 186.898 7.34318" stroke="black" stroke-width="1.30264" stroke-linecap="round" stroke-linejoin="round"/>
<path d="M181.121 17.7843C183.001 17.7843 184.524 16.2604 184.524 14.3809C184.524 12.5013 183.001 10.9775 181.121 10.9775C179.241 10.9775 177.718 12.5013 177.718 14.3809C177.718 16.2604 179.241 17.7843 181.121 17.7843Z" stroke="black" stroke-width="1.30264" stroke-linecap="round" stroke-linejoin="round"/>
<path d="M172.935 16.2796C174.571 16.2796 175.898 14.9528 175.898 13.3162C175.898 11.6794 174.571 10.3528 172.935 10.3528C171.298 10.3528 169.971 11.6794 169.971 13.3162C169.971 14.9528 171.298 16.2796 172.935 16.2796Z" stroke="white" stroke-width="1.30264" stroke-linecap="round" stroke-linejoin="round"/>
<path d="M172.935 16.7196C174.814 16.7196 176.338 15.1959 176.338 13.3162C176.338 11.4366 174.814 9.91284 172.935 9.91284C171.055 9.91284 169.531 11.4366 169.531 13.3162C169.531 15.1959 171.055 16.7196 172.935 16.7196Z" stroke="black" stroke-width="1.30264" stroke-linecap="round" stroke-linejoin="round"/>
<path d="M177.77 13.7937L176.325 13.6045L175.451 17.6173L176.956 17.6327" stroke="black" stroke-width="1.30264" stroke-linecap="round" stroke-linejoin="round"/>
<path d="M187.085 11.3494C187.439 12.7901 187.374 14.302 186.9 15.7076C186.9 15.7076 185.626 16.4468 186.007 15.0278C186.387 13.6088 186.227 11.3978 186.227 11.3978L187.085 11.3494Z" fill="black"/>
<path d="M173.676 24.127L171.507 30.562" stroke="black" stroke-width="1.30264" stroke-linecap="round" stroke-linejoin="round"/>
<path d="M181.316 18.9833C181.717 18.5631 182.174 20.4991 182.196 20.7015C182.225 21.2977 181.857 21.5001 181.316 21.6277C179.822 21.958 178.258 21.7036 176.945 20.9171C176.725 20.7851 176.285 20.5475 176.274 20.2571C177.827 20.3517 179.959 20.2021 181.175 19.1307C181.219 19.0779 181.27 19.0317 181.316 18.9833Z" stroke="black" stroke-width="1.30264" stroke-miterlimit="10"/>
<path d="M179.814 14.2292C180.091 14.1914 180.374 14.2109 180.643 14.2866C180.913 14.3623 181.165 14.4925 181.382 14.6692" stroke="black" stroke-width="1.30264" stroke-linecap="round" stroke-linejoin="round"/>
<path d="M173.593 13.3293C173.87 13.2915 174.153 13.311 174.422 13.3867C174.692 13.4624 174.944 13.5926 175.161 13.7693" stroke="black" stroke-width="1.30264" stroke-linecap="round" stroke-linejoin="round"/>
<path d="M161.686 74.7248C160.973 74.4872 160.276 74.2342 159.576 73.9746C160.3 74.1627 161.006 74.4137 161.686 74.7248Z" fill="#2E304A"/>
<path d="M91.1364 89.2954L91.6798 89.3785C91.5258 89.3588 91.3366 89.3282 91.1364 89.2954Z" fill="#2E304A"/>
<path d="M92.4626 89.5087L92.2932 89.4824L92.4626 89.5087Z" fill="#2E304A"/>
</svg>
