<svg width="100" height="28" viewBox="0 0 100 28" fill="none" xmlns="http://www.w3.org/2000/svg">
<g clip-path="url(#clip0_568_503)">
<path d="M81.7419 21.1431C80.6765 22.7464 78.8565 23.8072 76.7909 23.8072C74.7253 23.8072 72.9038 22.7464 71.8384 21.1431L68.6317 23.2632C70.3851 25.9061 73.3872 27.6534 76.7909 27.6534C80.1946 27.6534 83.1952 25.9061 84.9501 23.2632L81.7419 21.1431Z" fill="#ED145B"/>
<path d="M78.7003 17.9651H74.8814V11.6866C74.8814 9.77715 74.8556 8.44204 72.9704 8.44204C71.4262 8.44204 70.8246 9.69835 70.8246 11.3987V17.9651H67.0056V5.51419H70.773V7.05692C71.3747 6.03702 72.6825 5.19897 74.4101 5.19897C76.3469 5.19897 77.6274 5.95821 78.2836 7.44942C78.8595 6.37648 80.2961 5.19897 82.2859 5.19897C83.7241 5.19897 84.7455 5.59148 85.479 6.40224C86.2624 7.29333 86.5777 8.15562 86.5777 10.9016V17.9651H82.7587V11.6866C82.7587 9.77715 82.7587 8.44204 80.8735 8.44204C79.3035 8.44204 78.7034 9.69835 78.7034 11.3987V17.9651H78.7003Z" fill="#2E304A"/>
<path d="M25.5899 17.9682H21.771V11.6867C21.771 9.77718 21.6906 8.44207 19.8069 8.44207C18.2112 8.44207 17.5322 9.69838 17.5322 11.3987V17.9667H13.7118V0.175293H17.5322V6.97815C18.1339 6.00978 19.4417 5.19901 21.2208 5.19901C22.659 5.19901 23.7592 5.59151 24.4912 6.40228C25.2747 7.29336 25.5899 8.15565 25.5899 10.9016V17.9682Z" fill="#2E304A"/>
<path d="M38.0014 14.8539C38.0014 15.6374 38.1045 15.8996 38.6546 15.8996H38.8365V18.0985C38.2606 18.203 37.6862 18.2546 37.0588 18.2546C35.9601 18.2546 34.9387 18.0454 34.6781 17.1301H34.6523C34.0764 17.756 33.1596 18.2803 31.1456 18.2803C28.398 18.2803 26.6462 16.8664 26.6462 14.2765C26.6462 11.8973 28.4526 10.9546 31.0955 10.5349L33.6854 10.1166C34.3644 10.0105 34.4689 9.93323 34.4689 9.54073V9.3316C34.4689 8.3905 33.9461 7.86616 32.6383 7.86616C31.3304 7.86616 30.5727 8.41475 30.5727 9.67106L27.0402 9.64529C26.9887 6.79322 29.2906 5.25049 32.7959 5.25049C35.9889 5.25049 38.0045 6.24462 38.0045 9.06942V14.8524L38.0014 14.8539ZM34.4417 12.3155C34.1552 12.4201 33.9188 12.5504 32.5837 12.8141C31.3547 13.049 30.4394 13.2581 30.4394 14.3296C30.4394 15.401 31.1986 15.795 32.2973 15.795C33.5521 15.795 34.4432 15.2191 34.4432 13.9113V12.3155H34.4417Z" fill="#2E304A"/>
<path d="M43.9738 5.51279V7.21312C44.3133 6.27203 45.7257 5.22485 47.4775 5.22485C47.6367 5.22485 47.767 5.22485 47.9231 5.25062V8.91346C47.5048 8.80889 47.0335 8.75737 46.6941 8.75737C45.2286 8.75737 44.4951 9.46357 44.2087 10.5107C44.0769 10.982 44.0253 11.5564 44.0253 12.1853V17.9668H40.2049V5.51279H43.9723H43.9738Z" fill="#2E304A"/>
<path d="M53.1392 5.5144H49.293V17.9684H53.1392V5.5144Z" fill="#2E304A"/>
<path d="M98.9862 14.8539C98.9862 15.6374 99.0892 15.8996 99.6393 15.8996H99.8227V18.0985C99.2453 18.203 98.6695 18.2546 98.0421 18.2546C96.9434 18.2546 95.9235 18.0454 95.6613 17.1301H95.6355C95.0596 17.756 94.1443 18.2803 92.1288 18.2803C89.3813 18.2803 87.6294 16.8664 87.6294 14.2765C87.6294 11.8973 89.4358 10.9546 92.0788 10.5349L94.6687 10.1166C95.3491 10.0105 95.4521 9.93323 95.4521 9.54073V9.3316C95.4521 8.3905 94.9293 7.86616 93.6215 7.86616C92.3137 7.86616 91.5559 8.41475 91.5559 9.67106L88.0249 9.64529C87.9719 6.79322 90.2754 5.25049 93.7791 5.25049C96.9721 5.25049 98.9877 6.24462 98.9877 9.06942V14.8524L98.9862 14.8539ZM95.4264 12.3155C95.14 12.4201 94.9036 12.5504 93.57 12.8141C92.3394 13.049 91.4241 13.2581 91.4241 14.3296C91.4241 15.401 92.1833 15.795 93.282 15.795C94.5368 15.795 95.4279 15.2191 95.4279 13.9113V12.3155H95.4264Z" fill="#2E304A"/>
<path d="M63.2806 9.30741C62.3653 8.46937 61.1348 7.94654 59.9057 7.94654C59.0419 7.94654 58.2857 8.23296 58.2857 8.86187C58.2857 9.49078 58.8601 9.69991 60.1421 9.96057L62.1046 10.3804C64.1187 10.7986 65.9509 11.6094 65.9509 13.9902C65.9509 16.8938 63.4125 18.2789 60.4574 18.2789C57.5022 18.2789 55.1987 17.0256 54.0743 15.4814L56.4808 13.5431C57.2385 14.5903 58.7313 15.4526 60.4574 15.4526C61.7379 15.4526 62.3926 15.0343 62.3926 14.3539C62.3926 13.6734 61.6333 13.5188 60.7953 13.3597L58.8328 12.9687C57.578 12.7338 56.5035 12.3141 55.7443 11.6594C55.0654 11.085 54.6729 10.2743 54.6729 9.22709C54.6729 6.27045 57.5265 5.19751 59.9845 5.19751C62.3138 5.19751 64.1702 6.06132 65.4265 7.26458L63.2806 9.3059V9.30741Z" fill="#2E304A"/>
<path d="M53.1392 0.176758H49.293V4.02297H53.1392V0.176758Z" fill="#2E304A"/>
<path d="M12.5252 14.8797C11.8448 16.633 10.0929 18.2819 6.79527 18.2819C2.87177 18.2819 0.203064 16.0041 0.203064 11.7942C0.203064 7.58429 2.87177 5.19897 6.79527 5.19897C10.249 5.19897 12.0281 7.05692 12.657 9.07247L9.35941 10.1969C8.99419 8.83606 8.12887 8.07681 6.79527 8.07681C5.01613 8.07681 4.07504 9.43769 4.07504 11.7412C4.07504 14.0447 5.04341 15.3783 6.79527 15.3783C8.02582 15.3783 8.88811 14.7236 9.28061 13.5476L12.5252 14.8812V14.8797Z" fill="#2E304A"/>
<path d="M12.5252 14.8797C11.8448 16.633 10.0929 18.2819 6.79527 18.2819C2.87177 18.2819 0.203064 16.0041 0.203064 11.7942C0.203064 7.58429 2.87177 5.19897 6.79527 5.19897C10.249 5.19897 12.0281 7.05692 12.657 9.07247L9.35941 10.1969C8.99419 8.83606 8.12887 8.07681 6.79527 8.07681C5.01613 8.07681 4.07504 9.43769 4.07504 11.7412C4.07504 14.0447 5.04341 15.3783 6.79527 15.3783C8.02582 15.3783 8.88811 14.7236 9.28061 13.5476L12.5252 14.8812V14.8797Z" fill="#2E304A"/>
<path d="M12.5252 14.8797C11.8448 16.633 10.0929 18.2819 6.79527 18.2819C2.87177 18.2819 0.203064 16.0041 0.203064 11.7942C0.203064 7.58429 2.87177 5.19897 6.79527 5.19897C10.249 5.19897 12.0281 7.05692 12.657 9.07247L9.35941 10.1969C8.99419 8.83606 8.12887 8.07681 6.79527 8.07681C5.01613 8.07681 4.07504 9.43769 4.07504 11.7412C4.07504 14.0447 5.04341 15.3783 6.79527 15.3783C8.02582 15.3783 8.88811 14.7236 9.28061 13.5476L12.5252 14.8812V14.8797Z" fill="#2E304A"/>
</g>
<defs>
<clipPath id="clip0_568_503">
<rect width="100" height="27.8373" fill="white" transform="translate(0 0.0192871)"/>
</clipPath>
</defs>
</svg>
